{"accessors":[{"bufferView":0,"componentType":5121,"count":60,"max":[39],"min":[0],"type":"SCALAR"},{"bufferView":1,"componentType":5126,"count":40,"max":[0.03175000101327896,0.0031749997287988663,0.019049998372793198],"min":[-0.006350000388920307,-0.0031750001944601536,0.0],"type":"VEC3"},{"bufferView":2,"componentType":5126,"count":40,"max":[1.0,1.0,0.7071067094802856],"min":[-1.0,-1.0,-0.70710688829422],"type":"VEC3"},{"bufferView":3,"componentType":5126,"count":40,"max":[1.0,0.0,1.0,1.0],"min":[-1.0,0.0,-1.0,1.0],"type":"VEC4"},{"bufferView":4,"componentType":5126,"count":40,"max":[0.02539999969303608,1.0],"min":[0.0,0.9746000170707703],"type":"VEC2"},{"bufferView":5,"componentType":5121,"count":36,"max":[23],"min":[0],"type":"SCALAR"},{"bufferView":6,"componentType":5126,"count":24,"max":[0.03175000101327896,0.006350000388920307,0.05080000311136246],"min":[-0.006350000388920307,-0.006350000388920307,0.0],"type":"VEC3"},{"bufferView":7,"componentType":5126,"count":24,"max":[1.0,1.0,1.0],"min":[-1.0,-1.0,-1.0],"type":"VEC3"},{"bufferView":8,"componentType":5126,"count":24,"max":[1.0,0.0,1.0,1.0],"min":[-1.0,0.0,-1.0,1.0],"type":"VEC4"},{"bufferView":9,"componentType":5126,"count":24,"max":[0.02539999969303608,1.0],"min":[0.0,0.9746000170707703],"type":"VEC2"},{"bufferView":10,"componentType":5121,"count":36,"max":[23],"min":[0],"type":"SCALAR"},{"bufferView":11,"componentType":5126,"count":24,"max":[0.03175000101327896,0.006350000388920307,0.02539999783039093],"min":[-0.006350000388920307,-0.006350000388920307,0.0],"type":"VEC3"},{"bufferView":12,"componentType":5126,"count":24,"max":[1.0,1.0,1.0],"min":[-1.0,-1.0,-1.0],"type":"VEC3"},{"bufferView":13,"componentType":5126,"count":24,"max":[1.0,0.0,1.0,1.0],"min":[-1.0,0.0,-1.0,1.0],"type":"VEC4"},{"bufferView":14,"componentType":5126,"count":24,"max":[0.02539999969303608,1.0],"min":[0.0,0.9746000170707703],"type":"VEC2"},{"bufferView":15,"componentType":5126,"count":24,"max":[0.0,0.01269999798387289,0.0],"min":[0.0,-0.01269999798387289,0.0],"type":"VEC3"},{"bufferView":16,"componentType":5126,"count":24,"max":[0.0,0.0,0.0],"min":[0.0,0.0,0.0],"type":"VEC3"},{"bufferView":17,"componentType":5126,"count":24,"max":[0.0,0.0,0.0],"min":[0.0,0.0,0.0],"type":"VEC3"},{"bufferView":18,"componentType":5126,"count":24,"max":[0.0,0.0,0.025400005280971527],"min":[0.0,0.0,0.0],"type":"VEC3"},{"bufferView":19,"componentType":5126,"count":24,"max":[0.0,0.0,0.0],"min":[0.0,0.0,0.0],"type":"VEC3"},{"bufferView":20,"componentType":5126,"count":24,"max":[0.0,0.0,0.0],"min":[0.0,0.0,0.0],"type":"VEC3"},{"bufferView":21,"componentType":5121,"count":36,"max":[23],"min":[0],"type":"SCALAR"},{"bufferView":22,"componentType":5126,"count":24,"max":[0.03175000101327896,0.019049998372793198,0.02539999783039093],"min":[-0.006350000388920307,-0.019049998372793198,0.0],"type":"VEC3"},{"bufferView":23,"componentType":5126,"count":24,"max":[1.0,1.0,1.0],"min":[-1.0,-1.0,-1.0],"type":"VEC3"},{"bufferView":24,"componentType":5126,"count":24,"max":[1.0,0.0,1.0,1.0],"min":[-1.0,0.0,-1.0,1.0],"type":"VEC4"},{"bufferView":25,"componentType":5126,"count":24,"max":[0.02539999969303608,1.0],"min":[0.0,0.9746000170707703],"type":"VEC2"}],"asset":{"copyright":"Nexlevl Woodworking","generator":"Soft8Soft Verge3D for 3ds Max plug-in","version":"2.0"},"bufferViews":[{"buffer":0,"byteLength":60,"byteOffset":0,"target":34963},{"buffer":0,"byteLength":480,"byteOffset":60,"target":34962},{"buffer":0,"byteLength":480,"byteOffset":540,"target":34962},{"buffer":0,"byteLength":640,"byteOffset":1020,"target":34962},{"buffer":0,"byteLength":320,"byteOffset":1660,"target":34962},{"buffer":0,"byteLength":36,"byteOffset":1980,"target":34963},{"buffer":0,"byteLength":288,"byteOffset":2016,"target":34962},{"buffer":0,"byteLength":288,"byteOffset":2304,"target":34962},{"buffer":0,"byteLength":384,"byteOffset":2592,"target":34962},{"buffer":0,"byteLength":192,"byteOffset":2976,"target":34962},{"buffer":0,"byteLength":36,"byteOffset":3168,"target":34963},{"buffer":0,"byteLength":288,"byteOffset":3204,"target":34962},{"buffer":0,"byteLength":288,"byteOffset":3492,"target":34962},{"buffer":0,"byteLength":384,"byteOffset":3780,"target":34962},{"buffer":0,"byteLength":192,"byteOffset":4164,"target":34962},{"buffer":0,"byteLength":288,"byteOffset":4356,"target":34962},{"buffer":0,"byteLength":288,"byteOffset":4644,"target":34962},{"buffer":0,"byteLength":288,"byteOffset":4932,"target":34962},{"buffer":0,"byteLength":288,"byteOffset":5220,"target":34962},{"buffer":0,"byteLength":288,"byteOffset":5508,"target":34962},{"buffer":0,"byteLength":288,"byteOffset":5796,"target":34962},{"buffer":0,"byteLength":36,"byteOffset":6084,"target":34963},{"buffer":0,"byteLength":288,"byteOffset":6120,"target":34962},{"buffer":0,"byteLength":288,"byteOffset":6408,"target":34962},{"buffer":0,"byteLength":384,"byteOffset":6696,"target":34962},{"buffer":0,"byteLength":192,"byteOffset":7080,"target":34962}],"buffers":[{"byteLength":7272,"uri":"BackReliefRectangleFeature.bin"}],"cameras":[{"extensions":{"S8S_v3d_camera":{"controls":"ORBIT","enablePan":true,"moveSpeed":1,"orbitMaxDistance":10000,"orbitMaxPolarAngle":3.141592653589793,"orbitMinDistance":0,"orbitMinPolarAngle":0,"orbitTarget":[0,0,0],"rotateSpeed":1,"viewportFitInitialAspect":1.7777777777777777,"viewportFitType":"VERTICAL"}},"name":"__DEFAULT__","perspective":{"aspectRatio":1.7777777777777777,"yfov":0.4578223347944152,"zfar":1000,"znear":0.1},"type":"perspective"}],"extensions":{"S8S_v3d_clipping_planes":{},"S8S_v3d_curves":{},"S8S_v3d_light_probes":{},"S8S_v3d_lights":{"lights":[{"color":[1,1,1],"decay":0,"intensity":3.141592653589793,"name":"__DEFAULT__","profile":"max","type":"point"},{"color":[1.0,1.0,1.0],"intensity":1,"name":"__AMBIENT__","profile":"max","type":"ambient"}]}},"extensionsUsed":["S8S_v3d_materials","S8S_v3d_camera","S8S_v3d_lights","S8S_v3d_node","S8S_v3d_light_probes","S8S_v3d_clipping_planes","S8S_v3d_curves","S8S_v3d_scene"],"materials":[{"doubleSided":false,"extensions":{"S8S_v3d_materials":{"gtaoVisible":true,"nodeGraph":{"edges":[{"fromNode":1,"fromOutput":0,"toInput":0,"toNode":0},{"fromNode":1,"fromOutput":1,"toInput":1,"toNode":0}],"nodes":[{"inputs":[[1,1,1,1]],"is_active_output":true,"name":"MaxOutput","outputs":[],"type":"OUTPUT_MX"},{"brdfCurve":5.0,"brdfHigh":1.0,"brdfLow":0.05000000074505806,"brdfMode":true,"emitLuminance":1500.0,"inputFactors":[0,0,0,0,0,0,0,0,0,0,0,0,0,0,0,0,0,0,0,0,0,0,0,0,0],"inputs":[1.0,[0.14901960784313725,0.0,0.0,1.0],1.0,[1.0,1.0,1.0,1.0],0.20000000298023224,0.0,0.0,0.0,0.25,0.0,[1.0,1.0,1.0,1.0],0.0,1.5199999809265137,0.0,[1.0,1.0,1.0,1.0],1.0,1.0,[0.0,0.0,0.0,1.0],0.0,[1.0,1.0,1.0,1.0],0.0,[0,0,0],[0,0,0],0,1],"is_active_output":false,"name":"__DEFAULT__2391328014464","outputs":[[0,0,0,0]],"roughnessInv":false,"thinWalled":false,"transRoughnessInv":false,"transRoughnessLock":true,"type":"PHYSICAL_MX"}]},"profile":"max"}},"name":"__DEFAULT__2391328014464"},{"doubleSided":false,"extensions":{"S8S_v3d_materials":{"gtaoVisible":true,"nodeGraph":{"edges":[{"fromNode":1,"fromOutput":0,"toInput":0,"toNode":0},{"fromNode":1,"fromOutput":1,"toInput":1,"toNode":0}],"nodes":[{"inputs":[[1,1,1,1]],"is_active_output":true,"name":"MaxOutput","outputs":[],"type":"OUTPUT_MX"},{"brdfCurve":5.0,"brdfHigh":1.0,"brdfLow":0.05000000074505806,"brdfMode":true,"emitLuminance":1500.0,"inputFactors":[0,0,0,0,0,0,0,0,0,0,0,0,0,0,0,0,0,0,0,0,0,0,0,0,0],"inputs":[1.0,[0.14901960784313725,0.0,0.0,1.0],1.0,[1.0,1.0,1.0,1.0],0.20000000298023224,0.0,0.0,0.0,0.25,0.0,[1.0,1.0,1.0,1.0],0.0,1.5199999809265137,0.0,[1.0,1.0,1.0,1.0],1.0,1.0,[0.0,0.0,0.0,1.0],0.0,[1.0,1.0,1.0,1.0],0.0,[0,0,0],[0,0,0],0,1],"is_active_output":false,"name":"__DEFAULT__2391327993872","outputs":[[0,0,0,0]],"roughnessInv":false,"thinWalled":false,"transRoughnessInv":false,"transRoughnessLock":true,"type":"PHYSICAL_MX"}]},"profile":"max"}},"name":"__DEFAULT__2391327993872"},{"doubleSided":false,"extensions":{"S8S_v3d_materials":{"gtaoVisible":true,"nodeGraph":{"edges":[{"fromNode":1,"fromOutput":0,"toInput":0,"toNode":0},{"fromNode":1,"fromOutput":1,"toInput":1,"toNode":0}],"nodes":[{"inputs":[[1,1,1,1]],"is_active_output":true,"name":"MaxOutput","outputs":[],"type":"OUTPUT_MX"},{"brdfCurve":5.0,"brdfHigh":1.0,"brdfLow":0.05000000074505806,"brdfMode":true,"emitLuminance":1500.0,"inputFactors":[0,0,0,0,0,0,0,0,0,0,0,0,0,0,0,0,0,0,0,0,0,0,0,0,0],"inputs":[1.0,[0.14901960784313725,0.0,0.0,1.0],1.0,[1.0,1.0,1.0,1.0],0.20000000298023224,0.0,0.0,0.0,0.25,0.0,[1.0,1.0,1.0,1.0],0.0,1.5199999809265137,0.0,[1.0,1.0,1.0,1.0],1.0,1.0,[0.0,0.0,0.0,1.0],0.0,[1.0,1.0,1.0,1.0],0.0,[0,0,0],[0,0,0],0,1],"is_active_output":false,"name":"__DEFAULT__2391327986384","outputs":[[0,0,0,0]],"roughnessInv":false,"thinWalled":false,"transRoughnessInv":false,"transRoughnessLock":true,"type":"PHYSICAL_MX"}]},"profile":"max"}},"name":"__DEFAULT__2391327986384"},{"doubleSided":false,"extensions":{"S8S_v3d_materials":{"gtaoVisible":true,"nodeGraph":{"edges":[{"fromNode":1,"fromOutput":0,"toInput":0,"toNode":0},{"fromNode":1,"fromOutput":1,"toInput":1,"toNode":0}],"nodes":[{"inputs":[[1,1,1,1]],"is_active_output":true,"name":"MaxOutput","outputs":[],"type":"OUTPUT_MX"},{"brdfCurve":5.0,"brdfHigh":1.0,"brdfLow":0.05000000074505806,"brdfMode":true,"emitLuminance":1500.0,"inputFactors":[0,0,0,0,0,0,0,0,0,0,0,0,0,0,0,0,0,0,0,0,0,0,0,0,0],"inputs":[1.0,[0.14901960784313725,0.0,0.0,1.0],1.0,[1.0,1.0,1.0,1.0],0.20000000298023224,0.0,0.0,0.0,0.25,0.0,[1.0,1.0,1.0,1.0],0.0,1.5199999809265137,0.0,[1.0,1.0,1.0,1.0],1.0,1.0,[0.0,0.0,0.0,1.0],0.0,[1.0,1.0,1.0,1.0],0.0,[0,0,0],[0,0,0],0,1],"is_active_output":false,"name":"__DEFAULT__2391328001360","outputs":[[0,0,0,0]],"roughnessInv":false,"thinWalled":false,"transRoughnessInv":false,"transRoughnessLock":true,"type":"PHYSICAL_MX"}]},"profile":"max"}},"name":"__DEFAULT__2391328001360"},{"doubleSided":false,"extensions":{"S8S_v3d_materials":{"gtaoVisible":true,"nodeGraph":{"edges":[{"fromNode":1,"fromOutput":0,"toInput":0,"toNode":0},{"fromNode":1,"fromOutput":1,"toInput":1,"toNode":0}],"nodes":[{"inputs":[[1,1,1,1]],"is_active_output":true,"name":"MaxOutput","outputs":[],"type":"OUTPUT_MX"},{"brdfCurve":5.0,"brdfHigh":1.0,"brdfLow":0.05000000074505806,"brdfMode":true,"emitLuminance":1500.0,"inputFactors":[0,0,0,0,0,0,0,0,0,0,0,0,0,0,0,0,0,0,0,0,0,0,0,0,0],"inputs":[1.0,[0.14901960784313725,0.0,0.0,1.0],1.0,[1.0,1.0,1.0,1.0],0.20000000298023224,0.0,0.0,0.0,0.25,0.0,[1.0,1.0,1.0,1.0],0.0,1.5199999809265137,0.0,[1.0,1.0,1.0,1.0],1.0,1.0,[0.0,0.0,0.0,1.0],0.0,[1.0,1.0,1.0,1.0],0.0,[0,0,0],[0,0,0],0,1],"is_active_output":false,"name":"__DEFAULT__2391328006976","outputs":[[0,0,0,0]],"roughnessInv":false,"thinWalled":false,"transRoughnessInv":false,"transRoughnessLock":true,"type":"PHYSICAL_MX"}]},"profile":"max"}},"name":"__DEFAULT__2391328006976"},{"doubleSided":false,"extensions":{"S8S_v3d_materials":{"gtaoVisible":true,"nodeGraph":{"edges":[{"fromNode":1,"fromOutput":0,"toInput":0,"toNode":0},{"fromNode":1,"fromOutput":1,"toInput":1,"toNode":0}],"nodes":[{"inputs":[[1,1,1,1]],"is_active_output":true,"name":"MaxOutput","outputs":[],"type":"OUTPUT_MX"},{"brdfCurve":5.0,"brdfHigh":1.0,"brdfLow":0.05000000074505806,"brdfMode":true,"emitLuminance":1500.0,"inputFactors":[0,0,0,0,0,0,0,0,0,0,0,0,0,0,0,0,0,0,0,0,0,0,0,0,0],"inputs":[1.0,[0.14901960784313725,0.0,0.0,1.0],1.0,[1.0,1.0,1.0,1.0],0.20000000298023224,0.0,0.0,0.0,0.25,0.0,[1.0,1.0,1.0,1.0],0.0,1.5199999809265137,0.0,[1.0,1.0,1.0,1.0],1.0,1.0,[0.0,0.0,0.0,1.0],0.0,[1.0,1.0,1.0,1.0],0.0,[0,0,0],[0,0,0],0,1],"is_active_output":false,"name":"__DEFAULT__2391328008848","outputs":[[0,0,0,0]],"roughnessInv":false,"thinWalled":false,"transRoughnessInv":false,"transRoughnessLock":true,"type":"PHYSICAL_MX"}]},"profile":"max"}},"name":"__DEFAULT__2391328008848"},{"doubleSided":false,"extensions":{"S8S_v3d_materials":{"gtaoVisible":true,"nodeGraph":{"edges":[{"fromNode":1,"fromOutput":0,"toInput":0,"toNode":0},{"fromNode":1,"fromOutput":1,"toInput":1,"toNode":0}],"nodes":[{"inputs":[[1,1,1,1]],"is_active_output":true,"name":"MaxOutput","outputs":[],"type":"OUTPUT_MX"},{"brdfCurve":5.0,"brdfHigh":1.0,"brdfLow":0.05000000074505806,"brdfMode":true,"emitLuminance":1500.0,"inputFactors":[0,0,0,0,0,0,0,0,0,0,0,0,0,0,0,0,0,0,0,0,0,0,0,0,0],"inputs":[1.0,[0.14901960784313725,0.0,0.0,1.0],1.0,[1.0,1.0,1.0,1.0],0.20000000298023224,0.0,0.0,0.0,0.25,0.0,[1.0,1.0,1.0,1.0],0.0,1.5199999809265137,0.0,[1.0,1.0,1.0,1.0],1.0,1.0,[0.0,0.0,0.0,1.0],0.0,[1.0,1.0,1.0,1.0],0.0,[0,0,0],[0,0,0],0,1],"is_active_output":false,"name":"__DEFAULT__2391328016336","outputs":[[0,0,0,0]],"roughnessInv":false,"thinWalled":false,"transRoughnessInv":false,"transRoughnessLock":true,"type":"PHYSICAL_MX"}]},"profile":"max"}},"name":"__DEFAULT__2391328016336"},{"extensions":{"S8S_v3d_materials":{"nodeGraph":{"edges":[],"nodes":[{"inputs":[[0.8627450980392157,0.8627450980392157,0.8627450980392157,1]],"is_active_output":true,"name":"World Output","outputs":[],"type":"OUTPUT_MX"}]},"profile":"max"}},"name":"Verge3D_Environment"}],"meshes":[{"name":"BackReliefFeature_Trapezoid","primitives":[{"attributes":{"NORMAL":2,"POSITION":1,"TANGENT":3,"TEXCOORD_0":4},"indices":0,"material":0,"mode":4}]},{"name":"Layer:MainProfileOutline_WidthMorph_BackReliefRectangleFeature","primitives":[{"attributes":{"NORMAL":7,"POSITION":6,"TANGENT":8,"TEXCOORD_0":9},"indices":5,"material":1,"mode":4}]},{"extras":{"targetNames":["Layer:MainProfileOutline_ThicknessMorph_BackReliefRectangleFeature","Layer:MainProfileOutline_WidthMorph_BackReliefRectangleFeature"]},"name":"Layer:MainProfileOutline_Base_BackReliefRectangleFeature","primitives":[{"attributes":{"NORMAL":12,"POSITION":11,"TANGENT":13,"TEXCOORD_0":14},"indices":10,"material":2,"mode":4,"targets":[{"NORMAL":16,"POSITION":15,"TANGENT":17},{"NORMAL":19,"POSITION":18,"TANGENT":20}]}],"weights":[0.0,0.0]},{"name":"Layer:MainProfileOutline_ThicknessMorph_BackReliefRectangleFeature","primitives":[{"attributes":{"NORMAL":23,"POSITION":22,"TANGENT":24,"TEXCOORD_0":25},"indices":21,"material":3,"mode":4}]}],"nodes":[{"extensions":{"S8S_v3d_node":{"frustumCulling":true,"groupNames":["AllBackReliefObjects"],"hidden":true,"hidpiCompositing":false,"renderOrder":0,"useCastShadows":true,"useShadows":true}},"extras":{"customProps":{"thickness":".25","width":".75"}},"mesh":0,"name":"BackReliefFeature_Trapezoid","translation":[-0.01269999984651804,0.008016875013709068,-0.0010715620592236519]},{"extensions":{"S8S_v3d_node":{"frustumCulling":true,"groupNames":["MainProfileOutlineSet_BackReliefRectangleFeature","AllBackReliefObjects"],"hidden":true,"hidpiCompositing":false,"renderOrder":0,"useCastShadows":true,"useShadows":true}},"mesh":1,"name":"Layer:MainProfileOutline_WidthMorph_BackReliefRectangleFeature","translation":[-0.01269999984651804,0.008016875013709068,-0.0010715629905462265]},{"extensions":{"S8S_v3d_node":{"frustumCulling":true,"groupNames":["MainProfileOutlineSet_BackReliefRectangleFeature","AllBackReliefObjects"],"hidden":false,"hidpiCompositing":false,"renderOrder":0,"useCastShadows":true,"useShadows":true}},"mesh":2,"name":"Layer:MainProfileOutline_Base_BackReliefRectangleFeature","translation":[-0.01269999984651804,0.008016875013709068,-0.0010715620592236519]},{"extensions":{"S8S_v3d_node":{"frustumCulling":true,"groupNames":["MainProfileOutlineSet_BackReliefRectangleFeature","AllBackReliefObjects"],"hidden":true,"hidpiCompositing":false,"renderOrder":0,"useCastShadows":true,"useShadows":true}},"mesh":3,"name":"Layer:MainProfileOutline_ThicknessMorph_BackReliefRectangleFeature","translation":[-0.01269999984651804,0.008016875013709068,-0.0010715620592236519]},{"extensions":{"S8S_v3d_node":{"groupNames":["AllBackReliefObjects"],"hidden":true}},"extras":{"customProps":{"profileNo":"BackReliefRectangleFeature"}},"name":"OriginPoint_ProfileNo_BackReliefRectangleFeature","rotation":[-0.4999999403953552,0.5,-0.5000000596046448,-0.4999999403953552],"translation":[-0.01269999984651804,0.008016875013709068,-0.0010715625248849392]},{"extensions":{"S8S_v3d_node":{"groupNames":["AllBackReliefObjects"],"hidden":true}},"extras":{"customProps":{"initialWidth":"1","widthOrientation":"[0,-1,0]"}},"name":"WidthLine_BackReliefRectangleFeature","translation":[-0.01269999984651804,0.0016668748576194048,0.011628436855971813]},{"extensions":{"S8S_v3d_node":{"groupNames":["AllBackReliefObjects"],"hidden":true}},"extras":{"customProps":{"initialThickness":"0.5","thicknessOrientation":"[0,0,1]"}},"name":"ThicknessLine_BackReliefRectangleFeature","translation":[-0.01269999984651804,0.008016875013709068,-0.0010715625248849392]},{"camera":0,"children":[8],"name":"__DEFAULT_CAMERA__","rotation":[-0.43688279390335083,0.8427044153213501,0.2732042968273163,0.15601974725723267],"scale":[1.000000238418579,1.0000001192092896,0.9999999403953552],"translation":[-0.9766139984130859,0.9031957983970642,-0.6792780756950378]},{"extensions":{"S8S_v3d_lights":{"light":0}},"name":"__DEFAULT_LIGHT__","rotation":[3.774895063202166e-08,-0.0,-0.0,1.0],"scale":[1.0,1.0,1.0],"translation":[0.12763500213623047,0.1914524883031845,0.25527000427246094]},{"extensions":{"S8S_v3d_lights":{"light":1}},"name":"__AMBIENT__","rotation":[-0.7071068286895752,-0.0,-0.0,0.7071067690849304],"scale":[1.0,1.0,1.0],"translation":[0.0,0.0,0.0]}],"scene":0,"scenes":[{"extensions":{"S8S_v3d_scene":{"aaMethod":"AUTO","iblEnvironmentMode":"PROBE","physicallyCorrectLights":true,"pmremMaxTileSize":256,"shadowMap":{"esmDistanceScale":0.30000001192092896,"renderReverseSided":false,"renderSingleSided":true,"type":"PCFPOISSON"},"unitsScaleFactor":1.0,"worldMaterial":7}},"extras":{"animFrameRate":30,"coordSystem":"Z_UP_RIGHT"},"name":"Scene","nodes":[0,1,2,3,4,5,6,7,9]}]}
