{"accessors":[{"bufferView":0,"componentType":5121,"count":264,"max":[183],"min":[0],"type":"SCALAR"},{"bufferView":1,"componentType":5126,"count":184,"max":[1.2700000297627412e-05,0.03811297193169594,0.006362969055771828],"min":[-1.2700000297627412e-05,-0.007937501184642315,-0.00793750025331974],"type":"VEC3"},{"bufferView":2,"componentType":5126,"count":184,"max":[1.0,1.0,1.0],"min":[-1.0,-1.0,-1.0],"type":"VEC3"},{"bufferView":3,"componentType":5126,"count":184,"max":[1.0,1.0,1.0,1.0],"min":[-4.470347292340193e-08,-0.9789889454841614,-0.5299191474914551,-1.0],"type":"VEC4"},{"bufferView":4,"componentType":5126,"count":184,"max":[0.044449999928474426,1.0],"min":[0.0,0.9999201893806458],"type":"VEC2"},{"bufferView":5,"componentType":5121,"count":24,"max":[17],"min":[0],"type":"SCALAR"},{"bufferView":6,"componentType":5126,"count":18,"max":[6.350001058308408e-06,-0.006339001469314098,0.006350000388920307],"min":[-1.2700000297627412e-05,-0.006360998377203941,2.3172037899588105e-10],"type":"VEC3"},{"bufferView":7,"componentType":5126,"count":18,"max":[1.0,0.866026759147644,1.0],"min":[-0.49999767541885376,-0.866026759147644,-1.0],"type":"VEC3"},{"bufferView":8,"componentType":5126,"count":18,"max":[1.0,3.821344672308045e-15,1.0,1.0],"min":[0.0,0.0,0.0,-1.0],"type":"VEC4"},{"bufferView":9,"componentType":5126,"count":18,"max":[0.006350000388920307,1.0],"min":[0.0,0.9999201893806458],"type":"VEC2"},{"bufferView":10,"componentType":5121,"count":24,"max":[17],"min":[0],"type":"SCALAR"},{"bufferView":11,"componentType":5126,"count":18,"max":[1.2700000297627412e-05,0.038100000470876694,-0.006339001469314098],"min":[-6.350001058308408e-06,-9.615214440622522e-13,-0.006360998377203941],"type":"VEC3"},{"bufferView":12,"componentType":5126,"count":18,"max":[0.49999773502349854,1.0,0.866026759147644],"min":[-1.0,-1.0,-0.8660266995429993],"type":"VEC3"},{"bufferView":13,"componentType":5126,"count":18,"max":[1.0,1.0,0.0,1.0],"min":[0.0,0.0,0.0,-1.0],"type":"VEC4"},{"bufferView":14,"componentType":5126,"count":18,"max":[0.038100000470876694,1.0],"min":[0.0,0.9999201893806458],"type":"VEC2"},{"bufferView":15,"componentType":5121,"count":264,"max":[183],"min":[0],"type":"SCALAR"},{"bufferView":16,"componentType":5126,"count":184,"max":[1.2700000297627412e-05,0.01271297037601471,0.006362969055771828],"min":[-1.2700000297627412e-05,-0.00793750025331974,-0.00793750025331974],"type":"VEC3"},{"bufferView":17,"componentType":5126,"count":184,"max":[1.0,1.0,1.0],"min":[-1.0,-1.0,-1.0],"type":"VEC3"},{"bufferView":18,"componentType":5126,"count":184,"max":[1.0,1.0,1.0,1.0],"min":[-4.470347292340193e-08,-0.9789889454841614,-0.5299191474914551,-1.0],"type":"VEC4"},{"bufferView":19,"componentType":5126,"count":184,"max":[0.019050000235438347,1.0],"min":[0.0,0.9999201893806458],"type":"VEC2"},{"bufferView":20,"componentType":5126,"count":184,"max":[0.0,0.02540000155568123,4.656612873077393e-10],"min":[0.0,-9.313225746154785e-10,-4.656612873077393e-10],"type":"VEC3"},{"bufferView":21,"componentType":5126,"count":184,"max":[6.35385513305664e-05,3.808736801147461e-05,2.378225326538086e-05],"min":[-6.347894668579102e-05,-3.6656856536865234e-05,-2.378225326538086e-05],"type":"VEC3"},{"bufferView":22,"componentType":5126,"count":184,"max":[7.450587702351186e-08,1.3732724255532958e-05,2.1963140170555562e-05],"min":[-7.450257299979057e-08,-2.8014183044433594e-06,-2.1977186406729743e-05],"type":"VEC3"},{"bufferView":23,"componentType":5126,"count":184,"max":[0.0,0.0,0.02540000155568123],"min":[0.0,0.0,-1.3969838619232178e-09],"type":"VEC3"},{"bufferView":24,"componentType":5126,"count":184,"max":[7.933378219604492e-05,2.378225326538086e-05,4.583597183227539e-05],"min":[-6.720423698425293e-05,-2.378225326538086e-05,-1.3768672943115234e-05],"type":"VEC3"},{"bufferView":25,"componentType":5126,"count":184,"max":[1.1920975850898685e-07,7.748603820800781e-07,1.2516975402832031e-06],"min":[-7.45062891382986e-08,-5.960464477539063e-08,-1.2516975402832031e-06],"type":"VEC3"},{"bufferView":26,"componentType":5121,"count":24,"max":[17],"min":[0],"type":"SCALAR"},{"bufferView":27,"componentType":5126,"count":18,"max":[6.350001058308408e-06,-0.006339001469314098,0.006350000388920307],"min":[-1.2700000297627412e-05,-0.006360998377203941,2.3172037899588105e-10],"type":"VEC3"},{"bufferView":28,"componentType":5126,"count":18,"max":[1.0,0.866026759147644,1.0],"min":[-0.49999767541885376,-0.866026759147644,-1.0],"type":"VEC3"},{"bufferView":29,"componentType":5126,"count":18,"max":[1.0,3.821344672308045e-15,1.0,1.0],"min":[0.0,0.0,0.0,-1.0],"type":"VEC4"},{"bufferView":30,"componentType":5126,"count":18,"max":[0.006350000388920307,1.0],"min":[0.0,0.9999201893806458],"type":"VEC2"},{"bufferView":31,"componentType":5126,"count":18,"max":[0.0,0.0,0.0],"min":[0.0,0.0,0.0],"type":"VEC3"},{"bufferView":32,"componentType":5126,"count":18,"max":[0.0,0.0,0.0],"min":[0.0,0.0,0.0],"type":"VEC3"},{"bufferView":33,"componentType":5126,"count":18,"max":[0.0,0.0,0.0],"min":[0.0,0.0,0.0],"type":"VEC3"},{"bufferView":34,"componentType":5126,"count":18,"max":[0.0,0.0,0.02540000155568123],"min":[0.0,0.0,-2.3283064365386963e-10],"type":"VEC3"},{"bufferView":35,"componentType":5126,"count":18,"max":[5.960464477539063e-08,5.960464477539063e-08,0.0],"min":[0.0,-5.755396159656812e-13,0.0],"type":"VEC3"},{"bufferView":36,"componentType":5126,"count":18,"max":[0.0,5.039846036163087e-20,0.0],"min":[0.0,0.0,0.0],"type":"VEC3"},{"bufferView":37,"componentType":5121,"count":24,"max":[17],"min":[0],"type":"SCALAR"},{"bufferView":38,"componentType":5126,"count":18,"max":[1.2700000297627412e-05,0.01269999984651804,-0.006339001469314098],"min":[-6.350001058308408e-06,-9.615214440622522e-13,-0.006360998377203941],"type":"VEC3"},{"bufferView":39,"componentType":5126,"count":18,"max":[0.49999767541885376,1.0,0.8660268187522888],"min":[-1.0,-1.0,-0.866026759147644],"type":"VEC3"},{"bufferView":40,"componentType":5126,"count":18,"max":[1.0,1.0,0.0,1.0],"min":[0.0,0.0,0.0,-1.0],"type":"VEC4"},{"bufferView":41,"componentType":5126,"count":18,"max":[0.01269999984651804,1.0],"min":[0.0,0.9999201893806458],"type":"VEC2"},{"bufferView":42,"componentType":5126,"count":18,"max":[0.0,0.02540000155568123,0.0],"min":[0.0,0.0,0.0],"type":"VEC3"},{"bufferView":43,"componentType":5126,"count":18,"max":[5.960464477539063e-08,0.0,5.960464477539063e-08],"min":[0.0,0.0,-5.960464477539063e-08],"type":"VEC3"},{"bufferView":44,"componentType":5126,"count":18,"max":[0.0,0.0,0.0],"min":[0.0,0.0,0.0],"type":"VEC3"},{"bufferView":45,"componentType":5126,"count":18,"max":[0.0,0.0,0.0],"min":[0.0,0.0,0.0],"type":"VEC3"},{"bufferView":46,"componentType":5126,"count":18,"max":[0.0,0.0,0.0],"min":[0.0,0.0,0.0],"type":"VEC3"},{"bufferView":47,"componentType":5126,"count":18,"max":[0.0,0.0,0.0],"min":[0.0,0.0,0.0],"type":"VEC3"},{"bufferView":48,"componentType":5121,"count":264,"max":[183],"min":[0],"type":"SCALAR"},{"bufferView":49,"componentType":5126,"count":184,"max":[1.2700000297627412e-05,0.01271297037601471,0.03176296874880791],"min":[-1.2700000297627412e-05,-0.00793750025331974,-0.00793750025331974],"type":"VEC3"},{"bufferView":50,"componentType":5126,"count":184,"max":[1.0,1.0,1.0],"min":[-1.0,-1.0,-1.0],"type":"VEC3"},{"bufferView":51,"componentType":5126,"count":184,"max":[1.0,1.0,1.0,1.0],"min":[-7.45062891382986e-08,-0.9789889454841614,-0.5299202799797058,-1.0],"type":"VEC4"},{"bufferView":52,"componentType":5126,"count":184,"max":[0.038100000470876694,1.0],"min":[0.0,0.9999201893806458],"type":"VEC2"},{"bufferView":53,"componentType":5121,"count":24,"max":[17],"min":[0],"type":"SCALAR"},{"bufferView":54,"componentType":5126,"count":18,"max":[6.350001058308408e-06,-0.006339001469314098,0.03175000101327896],"min":[-1.2700000297627412e-05,-0.006360998377203941,-1.1102693200579217e-12],"type":"VEC3"},{"bufferView":55,"componentType":5126,"count":18,"max":[1.0,0.8660268187522888,1.0],"min":[-0.49999764561653137,-0.866026759147644,-1.0],"type":"VEC3"},{"bufferView":56,"componentType":5126,"count":18,"max":[1.0,3.821395070768407e-15,1.0,1.0],"min":[0.0,0.0,0.0,-1.0],"type":"VEC4"},{"bufferView":57,"componentType":5126,"count":18,"max":[0.03175000101327896,1.0],"min":[0.0,0.9999201893806458],"type":"VEC2"},{"bufferView":58,"componentType":5121,"count":24,"max":[17],"min":[0],"type":"SCALAR"},{"bufferView":59,"componentType":5126,"count":18,"max":[1.2700000297627412e-05,0.01269999984651804,-0.006339001469314098],"min":[-6.350001058308408e-06,-9.615214440622522e-13,-0.006360998377203941],"type":"VEC3"},{"bufferView":60,"componentType":5126,"count":18,"max":[0.49999767541885376,1.0,0.8660268187522888],"min":[-1.0,-1.0,-0.866026759147644],"type":"VEC3"},{"bufferView":61,"componentType":5126,"count":18,"max":[1.0,1.0,0.0,1.0],"min":[0.0,0.0,0.0,-1.0],"type":"VEC4"},{"bufferView":62,"componentType":5126,"count":18,"max":[0.01269999984651804,1.0],"min":[0.0,0.9999201893806458],"type":"VEC2"},{"bufferView":63,"componentType":5121,"count":36,"max":[23],"min":[0],"type":"SCALAR"},{"bufferView":64,"componentType":5126,"count":24,"max":[0.028574999421834946,0.038100000470876694,0.006350000388920307],"min":[-0.003175000660121441,-0.0031749997287988663,-0.0031749997287988663],"type":"VEC3"},{"bufferView":65,"componentType":5126,"count":24,"max":[1.0,1.0,1.0],"min":[-1.0,-1.0,-1.0],"type":"VEC3"},{"bufferView":66,"componentType":5126,"count":24,"max":[1.0,0.0,1.0,1.0],"min":[-1.0,0.0,-1.0,1.0],"type":"VEC4"},{"bufferView":67,"componentType":5126,"count":24,"max":[0.02539999969303608,1.0],"min":[0.0,0.9746000170707703],"type":"VEC2"},{"bufferView":68,"componentType":5121,"count":36,"max":[23],"min":[0],"type":"SCALAR"},{"bufferView":69,"componentType":5126,"count":24,"max":[0.028574999421834946,0.012700000777840614,0.006350000388920307],"min":[-0.003175000660121441,-0.0031750001944601536,-0.0031749997287988663],"type":"VEC3"},{"bufferView":70,"componentType":5126,"count":24,"max":[1.0,1.0,1.0],"min":[-1.0,-1.0,-1.0],"type":"VEC3"},{"bufferView":71,"componentType":5126,"count":24,"max":[1.0,0.0,1.0,1.0],"min":[-1.0,0.0,-1.0,1.0],"type":"VEC4"},{"bufferView":72,"componentType":5126,"count":24,"max":[0.02539999969303608,1.0],"min":[0.0,0.9746000170707703],"type":"VEC2"},{"bufferView":73,"componentType":5126,"count":24,"max":[0.0,0.02539999969303608,0.0],"min":[0.0,4.656612873077393e-10,0.0],"type":"VEC3"},{"bufferView":74,"componentType":5126,"count":24,"max":[0.0,0.0,0.0],"min":[0.0,0.0,0.0],"type":"VEC3"},{"bufferView":75,"componentType":5126,"count":24,"max":[0.0,0.0,0.0],"min":[0.0,0.0,0.0],"type":"VEC3"},{"bufferView":76,"componentType":5126,"count":24,"max":[0.0,0.0,0.02540000155568123],"min":[0.0,0.0,0.0],"type":"VEC3"},{"bufferView":77,"componentType":5126,"count":24,"max":[0.0,0.0,0.0],"min":[0.0,0.0,0.0],"type":"VEC3"},{"bufferView":78,"componentType":5126,"count":24,"max":[0.0,0.0,0.0],"min":[0.0,0.0,0.0],"type":"VEC3"},{"bufferView":79,"componentType":5121,"count":36,"max":[23],"min":[0],"type":"SCALAR"},{"bufferView":80,"componentType":5126,"count":24,"max":[0.028574999421834946,0.012700000777840614,0.03175000101327896],"min":[-0.003175000660121441,-0.0031750001944601536,-0.0031749997287988663],"type":"VEC3"},{"bufferView":81,"componentType":5126,"count":24,"max":[1.0,1.0,1.0],"min":[-1.0,-1.0,-1.0],"type":"VEC3"},{"bufferView":82,"componentType":5126,"count":24,"max":[1.0,0.0,1.0,1.0],"min":[-1.0,0.0,-1.0,1.0],"type":"VEC4"},{"bufferView":83,"componentType":5126,"count":24,"max":[0.02539999969303608,1.0],"min":[0.0,0.9746000170707703],"type":"VEC2"}],"asset":{"copyright":"Nexlevl Woodworking","generator":"Soft8Soft Verge3D for 3ds Max plug-in","version":"2.0"},"bufferViews":[{"buffer":0,"byteLength":264,"byteOffset":0,"target":34963},{"buffer":0,"byteLength":2208,"byteOffset":264,"target":34962},{"buffer":0,"byteLength":2208,"byteOffset":2472,"target":34962},{"buffer":0,"byteLength":2944,"byteOffset":4680,"target":34962},{"buffer":0,"byteLength":1472,"byteOffset":7624,"target":34962},{"buffer":0,"byteLength":24,"byteOffset":9096,"target":34963},{"buffer":0,"byteLength":216,"byteOffset":9120,"target":34962},{"buffer":0,"byteLength":216,"byteOffset":9336,"target":34962},{"buffer":0,"byteLength":288,"byteOffset":9552,"target":34962},{"buffer":0,"byteLength":144,"byteOffset":9840,"target":34962},{"buffer":0,"byteLength":24,"byteOffset":9984,"target":34963},{"buffer":0,"byteLength":216,"byteOffset":10008,"target":34962},{"buffer":0,"byteLength":216,"byteOffset":10224,"target":34962},{"buffer":0,"byteLength":288,"byteOffset":10440,"target":34962},{"buffer":0,"byteLength":144,"byteOffset":10728,"target":34962},{"buffer":0,"byteLength":264,"byteOffset":10872,"target":34963},{"buffer":0,"byteLength":2208,"byteOffset":11136,"target":34962},{"buffer":0,"byteLength":2208,"byteOffset":13344,"target":34962},{"buffer":0,"byteLength":2944,"byteOffset":15552,"target":34962},{"buffer":0,"byteLength":1472,"byteOffset":18496,"target":34962},{"buffer":0,"byteLength":2208,"byteOffset":19968,"target":34962},{"buffer":0,"byteLength":2208,"byteOffset":22176,"target":34962},{"buffer":0,"byteLength":2208,"byteOffset":24384,"target":34962},{"buffer":0,"byteLength":2208,"byteOffset":26592,"target":34962},{"buffer":0,"byteLength":2208,"byteOffset":28800,"target":34962},{"buffer":0,"byteLength":2208,"byteOffset":31008,"target":34962},{"buffer":0,"byteLength":24,"byteOffset":33216,"target":34963},{"buffer":0,"byteLength":216,"byteOffset":33240,"target":34962},{"buffer":0,"byteLength":216,"byteOffset":33456,"target":34962},{"buffer":0,"byteLength":288,"byteOffset":33672,"target":34962},{"buffer":0,"byteLength":144,"byteOffset":33960,"target":34962},{"buffer":0,"byteLength":216,"byteOffset":34104,"target":34962},{"buffer":0,"byteLength":216,"byteOffset":34320,"target":34962},{"buffer":0,"byteLength":216,"byteOffset":34536,"target":34962},{"buffer":0,"byteLength":216,"byteOffset":34752,"target":34962},{"buffer":0,"byteLength":216,"byteOffset":34968,"target":34962},{"buffer":0,"byteLength":216,"byteOffset":35184,"target":34962},{"buffer":0,"byteLength":24,"byteOffset":35400,"target":34963},{"buffer":0,"byteLength":216,"byteOffset":35424,"target":34962},{"buffer":0,"byteLength":216,"byteOffset":35640,"target":34962},{"buffer":0,"byteLength":288,"byteOffset":35856,"target":34962},{"buffer":0,"byteLength":144,"byteOffset":36144,"target":34962},{"buffer":0,"byteLength":216,"byteOffset":36288,"target":34962},{"buffer":0,"byteLength":216,"byteOffset":36504,"target":34962},{"buffer":0,"byteLength":216,"byteOffset":36720,"target":34962},{"buffer":0,"byteLength":216,"byteOffset":36936,"target":34962},{"buffer":0,"byteLength":216,"byteOffset":37152,"target":34962},{"buffer":0,"byteLength":216,"byteOffset":37368,"target":34962},{"buffer":0,"byteLength":264,"byteOffset":37584,"target":34963},{"buffer":0,"byteLength":2208,"byteOffset":37848,"target":34962},{"buffer":0,"byteLength":2208,"byteOffset":40056,"target":34962},{"buffer":0,"byteLength":2944,"byteOffset":42264,"target":34962},{"buffer":0,"byteLength":1472,"byteOffset":45208,"target":34962},{"buffer":0,"byteLength":24,"byteOffset":46680,"target":34963},{"buffer":0,"byteLength":216,"byteOffset":46704,"target":34962},{"buffer":0,"byteLength":216,"byteOffset":46920,"target":34962},{"buffer":0,"byteLength":288,"byteOffset":47136,"target":34962},{"buffer":0,"byteLength":144,"byteOffset":47424,"target":34962},{"buffer":0,"byteLength":24,"byteOffset":47568,"target":34963},{"buffer":0,"byteLength":216,"byteOffset":47592,"target":34962},{"buffer":0,"byteLength":216,"byteOffset":47808,"target":34962},{"buffer":0,"byteLength":288,"byteOffset":48024,"target":34962},{"buffer":0,"byteLength":144,"byteOffset":48312,"target":34962},{"buffer":0,"byteLength":36,"byteOffset":48456,"target":34963},{"buffer":0,"byteLength":288,"byteOffset":48492,"target":34962},{"buffer":0,"byteLength":288,"byteOffset":48780,"target":34962},{"buffer":0,"byteLength":384,"byteOffset":49068,"target":34962},{"buffer":0,"byteLength":192,"byteOffset":49452,"target":34962},{"buffer":0,"byteLength":36,"byteOffset":49644,"target":34963},{"buffer":0,"byteLength":288,"byteOffset":49680,"target":34962},{"buffer":0,"byteLength":288,"byteOffset":49968,"target":34962},{"buffer":0,"byteLength":384,"byteOffset":50256,"target":34962},{"buffer":0,"byteLength":192,"byteOffset":50640,"target":34962},{"buffer":0,"byteLength":288,"byteOffset":50832,"target":34962},{"buffer":0,"byteLength":288,"byteOffset":51120,"target":34962},{"buffer":0,"byteLength":288,"byteOffset":51408,"target":34962},{"buffer":0,"byteLength":288,"byteOffset":51696,"target":34962},{"buffer":0,"byteLength":288,"byteOffset":51984,"target":34962},{"buffer":0,"byteLength":288,"byteOffset":52272,"target":34962},{"buffer":0,"byteLength":36,"byteOffset":52560,"target":34963},{"buffer":0,"byteLength":288,"byteOffset":52596,"target":34962},{"buffer":0,"byteLength":288,"byteOffset":52884,"target":34962},{"buffer":0,"byteLength":384,"byteOffset":53172,"target":34962},{"buffer":0,"byteLength":192,"byteOffset":53556,"target":34962}],"buffers":[{"byteLength":53748,"uri":"RabbetNotchFeature.bin"}],"cameras":[{"extensions":{"S8S_v3d_camera":{"controls":"ORBIT","enablePan":true,"moveSpeed":1,"orbitMaxDistance":10000,"orbitMaxPolarAngle":3.141592653589793,"orbitMinDistance":0,"orbitMinPolarAngle":0,"orbitTarget":[0,0,0],"rotateSpeed":1,"viewportFitInitialAspect":1.7777777777777777,"viewportFitType":"VERTICAL"}},"name":"__DEFAULT__","perspective":{"aspectRatio":1.7777777777777777,"yfov":0.513038751017227,"zfar":1000,"znear":0.1},"type":"perspective"}],"extensions":{"S8S_v3d_clipping_planes":{},"S8S_v3d_curves":{},"S8S_v3d_light_probes":{},"S8S_v3d_lights":{"lights":[{"color":[1,1,1],"decay":0,"intensity":3.141592653589793,"name":"__DEFAULT__","profile":"max","type":"point"},{"color":[1.0,1.0,1.0],"intensity":1,"name":"__AMBIENT__","profile":"max","type":"ambient"}]}},"extensionsUsed":["S8S_v3d_materials","S8S_v3d_camera","S8S_v3d_lights","S8S_v3d_node","S8S_v3d_light_probes","S8S_v3d_clipping_planes","S8S_v3d_curves","S8S_v3d_scene"],"materials":[{"doubleSided":false,"extensions":{"S8S_v3d_materials":{"gtaoVisible":true,"nodeGraph":{"edges":[{"fromNode":1,"fromOutput":0,"toInput":0,"toNode":0},{"fromNode":1,"fromOutput":1,"toInput":1,"toNode":0}],"nodes":[{"inputs":[[1,1,1,1]],"is_active_output":true,"name":"MaxOutput","outputs":[],"type":"OUTPUT_MX"},{"brdfCurve":5.0,"brdfHigh":1.0,"brdfLow":0.05000000074505806,"brdfMode":true,"emitLuminance":1500.0,"inputFactors":[0,0,0,0,0,0,0,0,0,0,0,0,0,0,0,0,0,0,0,0,0,0,0,0,0],"inputs":[1.0,[0.14901960784313725,0.0,0.0,1.0],1.0,[1.0,1.0,1.0,1.0],0.20000000298023224,0.0,0.0,0.0,0.25,0.0,[1.0,1.0,1.0,1.0],0.0,1.5199999809265137,0.0,[1.0,1.0,1.0,1.0],1.0,1.0,[0.0,0.0,0.0,1.0],0.0,[1.0,1.0,1.0,1.0],0.0,[0,0,0],[0,0,0],0,1],"is_active_output":false,"name":"__DEFAULT__2622229840752","outputs":[[0,0,0,0]],"roughnessInv":false,"thinWalled":false,"transRoughnessInv":false,"transRoughnessLock":true,"type":"PHYSICAL_MX"}]},"profile":"max"}},"name":"__DEFAULT__2622229840752"},{"doubleSided":false,"extensions":{"S8S_v3d_materials":{"gtaoVisible":true,"nodeGraph":{"edges":[{"fromNode":1,"fromOutput":0,"toInput":0,"toNode":0},{"fromNode":1,"fromOutput":1,"toInput":1,"toNode":0}],"nodes":[{"inputs":[[1,1,1,1]],"is_active_output":true,"name":"MaxOutput","outputs":[],"type":"OUTPUT_MX"},{"brdfCurve":5.0,"brdfHigh":1.0,"brdfLow":0.05000000074505806,"brdfMode":true,"emitLuminance":1500.0,"inputFactors":[0,0,0,0,0,0,0,0,0,0,0,0,0,0,0,0,0,0,0,0,0,0,0,0,0],"inputs":[1.0,[0.14901960784313725,0.0,0.0,1.0],1.0,[1.0,1.0,1.0,1.0],0.20000000298023224,0.0,0.0,0.0,0.25,0.0,[1.0,1.0,1.0,1.0],0.0,1.5199999809265137,0.0,[1.0,1.0,1.0,1.0],1.0,1.0,[0.0,0.0,0.0,1.0],0.0,[1.0,1.0,1.0,1.0],0.0,[0,0,0],[0,0,0],0,1],"is_active_output":false,"name":"__DEFAULT__2622229842624","outputs":[[0,0,0,0]],"roughnessInv":false,"thinWalled":false,"transRoughnessInv":false,"transRoughnessLock":true,"type":"PHYSICAL_MX"}]},"profile":"max"}},"name":"__DEFAULT__2622229842624"},{"doubleSided":false,"extensions":{"S8S_v3d_materials":{"gtaoVisible":true,"nodeGraph":{"edges":[{"fromNode":1,"fromOutput":0,"toInput":0,"toNode":0},{"fromNode":1,"fromOutput":1,"toInput":1,"toNode":0}],"nodes":[{"inputs":[[1,1,1,1]],"is_active_output":true,"name":"MaxOutput","outputs":[],"type":"OUTPUT_MX"},{"brdfCurve":5.0,"brdfHigh":1.0,"brdfLow":0.05000000074505806,"brdfMode":true,"emitLuminance":1500.0,"inputFactors":[0,0,0,0,0,0,0,0,0,0,0,0,0,0,0,0,0,0,0,0,0,0,0,0,0],"inputs":[1.0,[0.14901960784313725,0.0,0.0,1.0],1.0,[1.0,1.0,1.0,1.0],0.20000000298023224,0.0,0.0,0.0,0.25,0.0,[1.0,1.0,1.0,1.0],0.0,1.5199999809265137,0.0,[1.0,1.0,1.0,1.0],1.0,1.0,[0.0,0.0,0.0,1.0],0.0,[1.0,1.0,1.0,1.0],0.0,[0,0,0],[0,0,0],0,1],"is_active_output":false,"name":"__DEFAULT__2622229846368","outputs":[[0,0,0,0]],"roughnessInv":false,"thinWalled":false,"transRoughnessInv":false,"transRoughnessLock":true,"type":"PHYSICAL_MX"}]},"profile":"max"}},"name":"__DEFAULT__2622229846368"},{"doubleSided":false,"extensions":{"S8S_v3d_materials":{"gtaoVisible":true,"nodeGraph":{"edges":[{"fromNode":1,"fromOutput":0,"toInput":0,"toNode":0},{"fromNode":1,"fromOutput":1,"toInput":1,"toNode":0}],"nodes":[{"inputs":[[1,1,1,1]],"is_active_output":true,"name":"MaxOutput","outputs":[],"type":"OUTPUT_MX"},{"brdfCurve":5.0,"brdfHigh":1.0,"brdfLow":0.05000000074505806,"brdfMode":true,"emitLuminance":1500.0,"inputFactors":[0,0,0,0,0,0,0,0,0,0,0,0,0,0,0,0,0,0,0,0,0,0,0,0,0],"inputs":[1.0,[0.14901960784313725,0.0,0.0,1.0],1.0,[1.0,1.0,1.0,1.0],0.20000000298023224,0.0,0.0,0.0,0.25,0.0,[1.0,1.0,1.0,1.0],0.0,1.5199999809265137,0.0,[1.0,1.0,1.0,1.0],1.0,1.0,[0.0,0.0,0.0,1.0],0.0,[1.0,1.0,1.0,1.0],0.0,[0,0,0],[0,0,0],0,1],"is_active_output":false,"name":"__DEFAULT__2622229848240","outputs":[[0,0,0,0]],"roughnessInv":false,"thinWalled":false,"transRoughnessInv":false,"transRoughnessLock":true,"type":"PHYSICAL_MX"}]},"profile":"max"}},"name":"__DEFAULT__2622229848240"},{"doubleSided":false,"extensions":{"S8S_v3d_materials":{"gtaoVisible":true,"nodeGraph":{"edges":[{"fromNode":1,"fromOutput":0,"toInput":0,"toNode":0},{"fromNode":1,"fromOutput":1,"toInput":1,"toNode":0}],"nodes":[{"inputs":[[1,1,1,1]],"is_active_output":true,"name":"MaxOutput","outputs":[],"type":"OUTPUT_MX"},{"brdfCurve":5.0,"brdfHigh":1.0,"brdfLow":0.05000000074505806,"brdfMode":true,"emitLuminance":1500.0,"inputFactors":[0,0,0,0,0,0,0,0,0,0,0,0,0,0,0,0,0,0,0,0,0,0,0,0,0],"inputs":[1.0,[0.14901960784313725,0.0,0.0,1.0],1.0,[1.0,1.0,1.0,1.0],0.20000000298023224,0.0,0.0,0.0,0.25,0.0,[1.0,1.0,1.0,1.0],0.0,1.5199999809265137,0.0,[1.0,1.0,1.0,1.0],1.0,1.0,[0.0,0.0,0.0,1.0],0.0,[1.0,1.0,1.0,1.0],0.0,[0,0,0],[0,0,0],0,1],"is_active_output":false,"name":"__DEFAULT__2622229837008","outputs":[[0,0,0,0]],"roughnessInv":false,"thinWalled":false,"transRoughnessInv":false,"transRoughnessLock":true,"type":"PHYSICAL_MX"}]},"profile":"max"}},"name":"__DEFAULT__2622229837008"},{"doubleSided":false,"extensions":{"S8S_v3d_materials":{"gtaoVisible":true,"nodeGraph":{"edges":[{"fromNode":1,"fromOutput":0,"toInput":0,"toNode":0},{"fromNode":1,"fromOutput":1,"toInput":1,"toNode":0}],"nodes":[{"inputs":[[1,1,1,1]],"is_active_output":true,"name":"MaxOutput","outputs":[],"type":"OUTPUT_MX"},{"brdfCurve":5.0,"brdfHigh":1.0,"brdfLow":0.05000000074505806,"brdfMode":true,"emitLuminance":1500.0,"inputFactors":[0,0,0,0,0,0,0,0,0,0,0,0,0,0,0,0,0,0,0,0,0,0,0,0,0],"inputs":[1.0,[0.14901960784313725,0.0,0.0,1.0],1.0,[1.0,1.0,1.0,1.0],0.20000000298023224,0.0,0.0,0.0,0.25,0.0,[1.0,1.0,1.0,1.0],0.0,1.5199999809265137,0.0,[1.0,1.0,1.0,1.0],1.0,1.0,[0.0,0.0,0.0,1.0],0.0,[1.0,1.0,1.0,1.0],0.0,[0,0,0],[0,0,0],0,1],"is_active_output":false,"name":"__DEFAULT__2622229820160","outputs":[[0,0,0,0]],"roughnessInv":false,"thinWalled":false,"transRoughnessInv":false,"transRoughnessLock":true,"type":"PHYSICAL_MX"}]},"profile":"max"}},"name":"__DEFAULT__2622229820160"},{"doubleSided":false,"extensions":{"S8S_v3d_materials":{"gtaoVisible":true,"nodeGraph":{"edges":[{"fromNode":1,"fromOutput":0,"toInput":0,"toNode":0},{"fromNode":1,"fromOutput":1,"toInput":1,"toNode":0}],"nodes":[{"inputs":[[1,1,1,1]],"is_active_output":true,"name":"MaxOutput","outputs":[],"type":"OUTPUT_MX"},{"brdfCurve":5.0,"brdfHigh":1.0,"brdfLow":0.05000000074505806,"brdfMode":true,"emitLuminance":1500.0,"inputFactors":[0,0,0,0,0,0,0,0,0,0,0,0,0,0,0,0,0,0,0,0,0,0,0,0,0],"inputs":[1.0,[0.14901960784313725,0.0,0.0,1.0],1.0,[1.0,1.0,1.0,1.0],0.20000000298023224,0.0,0.0,0.0,0.25,0.0,[1.0,1.0,1.0,1.0],0.0,1.5199999809265137,0.0,[1.0,1.0,1.0,1.0],1.0,1.0,[0.0,0.0,0.0,1.0],0.0,[1.0,1.0,1.0,1.0],0.0,[0,0,0],[0,0,0],0,1],"is_active_output":false,"name":"__DEFAULT__2622229850112","outputs":[[0,0,0,0]],"roughnessInv":false,"thinWalled":false,"transRoughnessInv":false,"transRoughnessLock":true,"type":"PHYSICAL_MX"}]},"profile":"max"}},"name":"__DEFAULT__2622229850112"},{"doubleSided":false,"extensions":{"S8S_v3d_materials":{"gtaoVisible":true,"nodeGraph":{"edges":[{"fromNode":1,"fromOutput":0,"toInput":0,"toNode":0},{"fromNode":1,"fromOutput":1,"toInput":1,"toNode":0}],"nodes":[{"inputs":[[1,1,1,1]],"is_active_output":true,"name":"MaxOutput","outputs":[],"type":"OUTPUT_MX"},{"brdfCurve":5.0,"brdfHigh":1.0,"brdfLow":0.05000000074505806,"brdfMode":true,"emitLuminance":1500.0,"inputFactors":[0,0,0,0,0,0,0,0,0,0,0,0,0,0,0,0,0,0,0,0,0,0,0,0,0],"inputs":[1.0,[0.14901960784313725,0.0,0.0,1.0],1.0,[1.0,1.0,1.0,1.0],0.20000000298023224,0.0,0.0,0.0,0.25,0.0,[1.0,1.0,1.0,1.0],0.0,1.5199999809265137,0.0,[1.0,1.0,1.0,1.0],1.0,1.0,[0.0,0.0,0.0,1.0],0.0,[1.0,1.0,1.0,1.0],0.0,[0,0,0],[0,0,0],0,1],"is_active_output":false,"name":"__DEFAULT__2622229823904","outputs":[[0,0,0,0]],"roughnessInv":false,"thinWalled":false,"transRoughnessInv":false,"transRoughnessLock":true,"type":"PHYSICAL_MX"}]},"profile":"max"}},"name":"__DEFAULT__2622229823904"},{"doubleSided":false,"extensions":{"S8S_v3d_materials":{"gtaoVisible":true,"nodeGraph":{"edges":[{"fromNode":1,"fromOutput":0,"toInput":0,"toNode":0},{"fromNode":1,"fromOutput":1,"toInput":1,"toNode":0}],"nodes":[{"inputs":[[1,1,1,1]],"is_active_output":true,"name":"MaxOutput","outputs":[],"type":"OUTPUT_MX"},{"brdfCurve":5.0,"brdfHigh":1.0,"brdfLow":0.05000000074505806,"brdfMode":true,"emitLuminance":1500.0,"inputFactors":[0,0,0,0,0,0,0,0,0,0,0,0,0,0,0,0,0,0,0,0,0,0,0,0,0],"inputs":[1.0,[0.14901960784313725,0.0,0.0,1.0],1.0,[1.0,1.0,1.0,1.0],0.20000000298023224,0.0,0.0,0.0,0.25,0.0,[1.0,1.0,1.0,1.0],0.0,1.5199999809265137,0.0,[1.0,1.0,1.0,1.0],1.0,1.0,[0.0,0.0,0.0,1.0],0.0,[1.0,1.0,1.0,1.0],0.0,[0,0,0],[0,0,0],0,1],"is_active_output":false,"name":"__DEFAULT__2622229827648","outputs":[[0,0,0,0]],"roughnessInv":false,"thinWalled":false,"transRoughnessInv":false,"transRoughnessLock":true,"type":"PHYSICAL_MX"}]},"profile":"max"}},"name":"__DEFAULT__2622229827648"},{"doubleSided":false,"extensions":{"S8S_v3d_materials":{"gtaoVisible":true,"nodeGraph":{"edges":[{"fromNode":1,"fromOutput":0,"toInput":0,"toNode":0},{"fromNode":1,"fromOutput":1,"toInput":1,"toNode":0}],"nodes":[{"inputs":[[1,1,1,1]],"is_active_output":true,"name":"MaxOutput","outputs":[],"type":"OUTPUT_MX"},{"brdfCurve":5.0,"brdfHigh":1.0,"brdfLow":0.05000000074505806,"brdfMode":true,"emitLuminance":1500.0,"inputFactors":[0,0,0,0,0,0,0,0,0,0,0,0,0,0,0,0,0,0,0,0,0,0,0,0,0],"inputs":[1.0,[0.14901960784313725,0.0,0.0,1.0],1.0,[1.0,1.0,1.0,1.0],0.20000000298023224,0.0,0.0,0.0,0.25,0.0,[1.0,1.0,1.0,1.0],0.0,1.5199999809265137,0.0,[1.0,1.0,1.0,1.0],1.0,1.0,[0.0,0.0,0.0,1.0],0.0,[1.0,1.0,1.0,1.0],0.0,[0,0,0],[0,0,0],0,1],"is_active_output":false,"name":"__DEFAULT__2622229829520","outputs":[[0,0,0,0]],"roughnessInv":false,"thinWalled":false,"transRoughnessInv":false,"transRoughnessLock":true,"type":"PHYSICAL_MX"}]},"profile":"max"}},"name":"__DEFAULT__2622229829520"},{"doubleSided":false,"extensions":{"S8S_v3d_materials":{"gtaoVisible":true,"nodeGraph":{"edges":[{"fromNode":1,"fromOutput":0,"toInput":0,"toNode":0},{"fromNode":1,"fromOutput":1,"toInput":1,"toNode":0}],"nodes":[{"inputs":[[1,1,1,1]],"is_active_output":true,"name":"MaxOutput","outputs":[],"type":"OUTPUT_MX"},{"brdfCurve":5.0,"brdfHigh":1.0,"brdfLow":0.05000000074505806,"brdfMode":true,"emitLuminance":1500.0,"inputFactors":[0,0,0,0,0,0,0,0,0,0,0,0,0,0,0,0,0,0,0,0,0,0,0,0,0],"inputs":[1.0,[0.14901960784313725,0.0,0.0,1.0],1.0,[1.0,1.0,1.0,1.0],0.20000000298023224,0.0,0.0,0.0,0.25,0.0,[1.0,1.0,1.0,1.0],0.0,1.5199999809265137,0.0,[1.0,1.0,1.0,1.0],1.0,1.0,[0.0,0.0,0.0,1.0],0.0,[1.0,1.0,1.0,1.0],0.0,[0,0,0],[0,0,0],0,1],"is_active_output":false,"name":"__DEFAULT__2622087796928","outputs":[[0,0,0,0]],"roughnessInv":false,"thinWalled":false,"transRoughnessInv":false,"transRoughnessLock":true,"type":"PHYSICAL_MX"}]},"profile":"max"}},"name":"__DEFAULT__2622087796928"},{"doubleSided":false,"extensions":{"S8S_v3d_materials":{"gtaoVisible":true,"nodeGraph":{"edges":[{"fromNode":1,"fromOutput":0,"toInput":0,"toNode":0},{"fromNode":1,"fromOutput":1,"toInput":1,"toNode":0}],"nodes":[{"inputs":[[1,1,1,1]],"is_active_output":true,"name":"MaxOutput","outputs":[],"type":"OUTPUT_MX"},{"brdfCurve":5.0,"brdfHigh":1.0,"brdfLow":0.05000000074505806,"brdfMode":true,"emitLuminance":1500.0,"inputFactors":[0,0,0,0,0,0,0,0,0,0,0,0,0,0,0,0,0,0,0,0,0,0,0,0,0],"inputs":[1.0,[0.14901960784313725,0.0,0.0,1.0],1.0,[1.0,1.0,1.0,1.0],0.20000000298023224,0.0,0.0,0.0,0.25,0.0,[1.0,1.0,1.0,1.0],0.0,1.5199999809265137,0.0,[1.0,1.0,1.0,1.0],1.0,1.0,[0.0,0.0,0.0,1.0],0.0,[1.0,1.0,1.0,1.0],0.0,[0,0,0],[0,0,0],0,1],"is_active_output":false,"name":"__DEFAULT__2622087825008","outputs":[[0,0,0,0]],"roughnessInv":false,"thinWalled":false,"transRoughnessInv":false,"transRoughnessLock":true,"type":"PHYSICAL_MX"}]},"profile":"max"}},"name":"__DEFAULT__2622087825008"},{"doubleSided":false,"extensions":{"S8S_v3d_materials":{"gtaoVisible":true,"nodeGraph":{"edges":[{"fromNode":1,"fromOutput":0,"toInput":0,"toNode":0},{"fromNode":1,"fromOutput":1,"toInput":1,"toNode":0}],"nodes":[{"inputs":[[1,1,1,1]],"is_active_output":true,"name":"MaxOutput","outputs":[],"type":"OUTPUT_MX"},{"brdfCurve":5.0,"brdfHigh":1.0,"brdfLow":0.05000000074505806,"brdfMode":true,"emitLuminance":1500.0,"inputFactors":[0,0,0,0,0,0,0,0,0,0,0,0,0,0,0,0,0,0,0,0,0,0,0,0,0],"inputs":[1.0,[0.14901960784313725,0.0,0.0,1.0],1.0,[1.0,1.0,1.0,1.0],0.20000000298023224,0.0,0.0,0.0,0.25,0.0,[1.0,1.0,1.0,1.0],0.0,1.5199999809265137,0.0,[1.0,1.0,1.0,1.0],1.0,1.0,[0.0,0.0,0.0,1.0],0.0,[1.0,1.0,1.0,1.0],0.0,[0,0,0],[0,0,0],0,1],"is_active_output":false,"name":"__DEFAULT__2622087821264","outputs":[[0,0,0,0]],"roughnessInv":false,"thinWalled":false,"transRoughnessInv":false,"transRoughnessLock":true,"type":"PHYSICAL_MX"}]},"profile":"max"}},"name":"__DEFAULT__2622087821264"},{"doubleSided":false,"extensions":{"S8S_v3d_materials":{"gtaoVisible":true,"nodeGraph":{"edges":[{"fromNode":1,"fromOutput":0,"toInput":0,"toNode":0},{"fromNode":1,"fromOutput":1,"toInput":1,"toNode":0}],"nodes":[{"inputs":[[1,1,1,1]],"is_active_output":true,"name":"MaxOutput","outputs":[],"type":"OUTPUT_MX"},{"brdfCurve":5.0,"brdfHigh":1.0,"brdfLow":0.05000000074505806,"brdfMode":true,"emitLuminance":1500.0,"inputFactors":[0,0,0,0,0,0,0,0,0,0,0,0,0,0,0,0,0,0,0,0,0,0,0,0,0],"inputs":[1.0,[0.14901960784313725,0.0,0.0,1.0],1.0,[1.0,1.0,1.0,1.0],0.20000000298023224,0.0,0.0,0.0,0.25,0.0,[1.0,1.0,1.0,1.0],0.0,1.5199999809265137,0.0,[1.0,1.0,1.0,1.0],1.0,1.0,[0.0,0.0,0.0,1.0],0.0,[1.0,1.0,1.0,1.0],0.0,[0,0,0],[0,0,0],0,1],"is_active_output":false,"name":"__DEFAULT__2622087815648","outputs":[[0,0,0,0]],"roughnessInv":false,"thinWalled":false,"transRoughnessInv":false,"transRoughnessLock":true,"type":"PHYSICAL_MX"}]},"profile":"max"}},"name":"__DEFAULT__2622087815648"},{"doubleSided":false,"extensions":{"S8S_v3d_materials":{"gtaoVisible":true,"nodeGraph":{"edges":[{"fromNode":1,"fromOutput":0,"toInput":0,"toNode":0},{"fromNode":1,"fromOutput":1,"toInput":1,"toNode":0}],"nodes":[{"inputs":[[1,1,1,1]],"is_active_output":true,"name":"MaxOutput","outputs":[],"type":"OUTPUT_MX"},{"brdfCurve":5.0,"brdfHigh":1.0,"brdfLow":0.05000000074505806,"brdfMode":true,"emitLuminance":1500.0,"inputFactors":[0,0,0,0,0,0,0,0,0,0,0,0,0,0,0,0,0,0,0,0,0,0,0,0,0],"inputs":[1.0,[0.14901960784313725,0.0,0.0,1.0],1.0,[1.0,1.0,1.0,1.0],0.20000000298023224,0.0,0.0,0.0,0.25,0.0,[1.0,1.0,1.0,1.0],0.0,1.5199999809265137,0.0,[1.0,1.0,1.0,1.0],1.0,1.0,[0.0,0.0,0.0,1.0],0.0,[1.0,1.0,1.0,1.0],0.0,[0,0,0],[0,0,0],0,1],"is_active_output":false,"name":"__DEFAULT__2622087817520","outputs":[[0,0,0,0]],"roughnessInv":false,"thinWalled":false,"transRoughnessInv":false,"transRoughnessLock":true,"type":"PHYSICAL_MX"}]},"profile":"max"}},"name":"__DEFAULT__2622087817520"},{"extensions":{"S8S_v3d_materials":{"nodeGraph":{"edges":[],"nodes":[{"inputs":[[1.0,1.0,1.0,1]],"is_active_output":true,"name":"World Output","outputs":[],"type":"OUTPUT_MX"}]},"profile":"max"}},"name":"Verge3D_Environment"}],"meshes":[{"name":"Layer:MainProfileDimensions_ThicknessMorph_RabbetNotchFeature","primitives":[{"attributes":{"NORMAL":2,"POSITION":1,"TANGENT":3,"TEXCOORD_0":4},"indices":0,"material":3,"mode":4}]},{"name":"Layer:MainDimensionLine1_ThicknessMorph_RabbetNotchFeature","primitives":[{"attributes":{"NORMAL":7,"POSITION":6,"TANGENT":8,"TEXCOORD_0":9},"indices":5,"material":4,"mode":4}]},{"name":"Layer:MainDimensionLine0_ThicknessMorph_RabbetNotchFeature","primitives":[{"attributes":{"NORMAL":12,"POSITION":11,"TANGENT":13,"TEXCOORD_0":14},"indices":10,"material":5,"mode":4}]},{"extras":{"targetNames":["Layer:MainProfileDimensions_ThicknessMorph_RabbetNotchFeature","Layer:MainProfileDimensions_WidthMorph_RabbetNotchFeature"]},"name":"Layer:MainProfileDimensions_Base_RabbetNotchFeature","primitives":[{"attributes":{"NORMAL":17,"POSITION":16,"TANGENT":18,"TEXCOORD_0":19},"indices":15,"material":6,"mode":4,"targets":[{"NORMAL":21,"POSITION":20,"TANGENT":22},{"NORMAL":24,"POSITION":23,"TANGENT":25}]}],"weights":[0.0,0.0]},{"extras":{"targetNames":["Layer:MainDimensionLine1_ThicknessMorph_RabbetNotchFeature","Layer:MainDimensionLine1_WidthMorph_RabbetNotchFeature"]},"name":"Layer:MainDimensionLine1_0_1_W_0.25_Base_RabbetNotchFeature","primitives":[{"attributes":{"NORMAL":28,"POSITION":27,"TANGENT":29,"TEXCOORD_0":30},"indices":26,"material":7,"mode":4,"targets":[{"NORMAL":32,"POSITION":31,"TANGENT":33},{"NORMAL":35,"POSITION":34,"TANGENT":36}]}],"weights":[0.0,0.0]},{"extras":{"targetNames":["Layer:MainDimensionLine0_ThicknessMorph_RabbetNotchFeature","Layer:MainDimensionLine0_WidthMorph_RabbetNotchFeature"]},"name":"Layer:MainDimensionLine0_-90_1_T_0.5_Base_RabbetNotchFeature","primitives":[{"attributes":{"NORMAL":39,"POSITION":38,"TANGENT":40,"TEXCOORD_0":41},"indices":37,"material":8,"mode":4,"targets":[{"NORMAL":43,"POSITION":42,"TANGENT":44},{"NORMAL":46,"POSITION":45,"TANGENT":47}]}],"weights":[0.0,0.0]},{"name":"Layer:MainProfileDimensions_WidthMorph_RabbetNotchFeature","primitives":[{"attributes":{"NORMAL":50,"POSITION":49,"TANGENT":51,"TEXCOORD_0":52},"indices":48,"material":9,"mode":4}]},{"name":"Layer:MainDimensionLine1_WidthMorph_RabbetNotchFeature","primitives":[{"attributes":{"NORMAL":55,"POSITION":54,"TANGENT":56,"TEXCOORD_0":57},"indices":53,"material":10,"mode":4}]},{"name":"Layer:MainDimensionLine0_WidthMorph_RabbetNotchFeature","primitives":[{"attributes":{"NORMAL":60,"POSITION":59,"TANGENT":61,"TEXCOORD_0":62},"indices":58,"material":11,"mode":4}]},{"name":"Layer:MainProfileOutline_ThicknessMorph_RabbetNotchFeature","primitives":[{"attributes":{"NORMAL":65,"POSITION":64,"TANGENT":66,"TEXCOORD_0":67},"indices":63,"material":12,"mode":4}]},{"extras":{"targetNames":["Layer:MainProfileOutline_ThicknessMorph_RabbetNotchFeature","Layer:MainProfileOutline_WidthMorph_RabbetNotchFeature"]},"name":"Layer:MainProfileOutline_Base_RabbetNotchFeature","primitives":[{"attributes":{"NORMAL":70,"POSITION":69,"TANGENT":71,"TEXCOORD_0":72},"indices":68,"material":13,"mode":4,"targets":[{"NORMAL":74,"POSITION":73,"TANGENT":75},{"NORMAL":77,"POSITION":76,"TANGENT":78}]}],"weights":[0.0,0.0]},{"name":"Layer:MainProfileOutline_WidthMorph_RabbetNotchFeature","primitives":[{"attributes":{"NORMAL":81,"POSITION":80,"TANGENT":82,"TEXCOORD_0":83},"indices":79,"material":14,"mode":4}]}],"nodes":[{"extensions":{"S8S_v3d_node":{"groupNames":["AllRabbetNotchObjects"],"hidden":true}},"extras":{"customProps":{"profileNo":"RabbetNotchFeature"}},"name":"OriginPoint_ProfileNo_RabbetNotchFeature","rotation":[-0.4999999403953552,0.5,-0.5000000596046448,-0.4999999403953552],"translation":[-0.01269999984651804,0.0,-0.0031750001944601536]},{"extensions":{"S8S_v3d_node":{"groupNames":["AllRabbetNotchObjects"],"hidden":true}},"extras":{"customProps":{"initialWidth":"0.25","widthOrientation":"[0,-1,0]"}},"name":"WidthLine_RabbetNotchFeature","translation":[-0.01269999984651804,0.0,-0.0]},{"extensions":{"S8S_v3d_node":{"groupNames":["AllRabbetNotchObjects"],"hidden":true}},"extras":{"customProps":{"initialThickness":"0.5","thicknessOrientation":"[0,0,1]"}},"name":"ThicknessLine_RabbetNotchFeature","translation":[-0.01269999984651804,0.00634999992325902,-0.00317499996162951]},{"extensions":{"S8S_v3d_node":{"frustumCulling":true,"groupNames":["MainProfileDimensionsSet_RabbetNotchFeature","AllRabbetNotchObjects"],"hidden":true,"hidpiCompositing":false,"renderOrder":0,"useCastShadows":true,"useShadows":true}},"mesh":0,"name":"Layer:MainProfileDimensions_ThicknessMorph_RabbetNotchFeature","translation":[-0.01269999984651804,0.0,-0.0031750001944601536]},{"extensions":{"S8S_v3d_node":{"frustumCulling":true,"groupNames":["MainDimensionLines_ThicknessMorphs_RabbetNotchFeature","AllRabbetNotchObjects"],"hidden":true,"hidpiCompositing":false,"renderOrder":0,"useCastShadows":true,"useShadows":true}},"mesh":1,"name":"Layer:MainDimensionLine1_ThicknessMorph_RabbetNotchFeature","translation":[-0.01269999984651804,0.0,-0.0031750001944601536]},{"extensions":{"S8S_v3d_node":{"frustumCulling":true,"groupNames":["MainDimensionLines_ThicknessMorphs_RabbetNotchFeature","AllRabbetNotchObjects"],"hidden":true,"hidpiCompositing":false,"renderOrder":0,"useCastShadows":true,"useShadows":true}},"mesh":2,"name":"Layer:MainDimensionLine0_ThicknessMorph_RabbetNotchFeature","translation":[-0.01269999984651804,0.0,-0.0031750001944601536]},{"extensions":{"S8S_v3d_node":{"frustumCulling":true,"groupNames":["MainProfileDimensionsSet_RabbetNotchFeature","AllRabbetNotchObjects"],"hidden":false,"hidpiCompositing":false,"renderOrder":0,"useCastShadows":true,"useShadows":true}},"mesh":3,"name":"Layer:MainProfileDimensions_Base_RabbetNotchFeature","translation":[-0.01269999984651804,0.0,-0.0031750001944601536]},{"extensions":{"S8S_v3d_node":{"frustumCulling":true,"groupNames":["MainDimensionLines_Bases_RabbetNotchFeature","AllRabbetNotchObjects"],"hidden":false,"hidpiCompositing":false,"renderOrder":0,"useCastShadows":true,"useShadows":true}},"extras":{"customProps":{"dimRotation":"0","initialSize":"0.25","itsMorphRatio":"1","itsMorphTarget":"W"}},"mesh":4,"name":"Layer:MainDimensionLine1_0_1_W_0.25_Base_RabbetNotchFeature","translation":[-0.01269999984651804,0.0,-0.0031750001944601536]},{"extensions":{"S8S_v3d_node":{"frustumCulling":true,"groupNames":["MainDimensionLines_Bases_RabbetNotchFeature","AllRabbetNotchObjects"],"hidden":false,"hidpiCompositing":false,"renderOrder":0,"useCastShadows":true,"useShadows":true}},"extras":{"customProps":{"dimRotation":"-90","initialSize":"0.5","itsMorphRatio":"1","itsMorphTarget":"T"}},"mesh":5,"name":"Layer:MainDimensionLine0_-90_1_T_0.5_Base_RabbetNotchFeature","translation":[-0.01269999984651804,0.0,-0.0031750001944601536]},{"extensions":{"S8S_v3d_node":{"frustumCulling":true,"groupNames":["MainProfileDimensionsSet_RabbetNotchFeature","AllRabbetNotchObjects"],"hidden":true,"hidpiCompositing":false,"renderOrder":0,"useCastShadows":true,"useShadows":true}},"mesh":6,"name":"Layer:MainProfileDimensions_WidthMorph_RabbetNotchFeature","translation":[-0.01269999984651804,0.0,-0.0031749997287988663]},{"extensions":{"S8S_v3d_node":{"frustumCulling":true,"groupNames":["MainDimensionLines_WidthMorphs_RabbetNotchFeature","AllRabbetNotchObjects"],"hidden":true,"hidpiCompositing":false,"renderOrder":0,"useCastShadows":true,"useShadows":true}},"mesh":7,"name":"Layer:MainDimensionLine1_WidthMorph_RabbetNotchFeature","translation":[-0.01269999984651804,0.0,-0.003175000660121441]},{"extensions":{"S8S_v3d_node":{"frustumCulling":true,"groupNames":["MainDimensionLines_WidthMorphs_RabbetNotchFeature","AllRabbetNotchObjects"],"hidden":true,"hidpiCompositing":false,"renderOrder":0,"useCastShadows":true,"useShadows":true}},"mesh":8,"name":"Layer:MainDimensionLine0_WidthMorph_RabbetNotchFeature","translation":[-0.01269999984651804,0.0,-0.0031750001944601536]},{"extensions":{"S8S_v3d_node":{"frustumCulling":true,"groupNames":["MainProfileOutlineSet_RabbetNotchFeature","AllRabbetNotchObjects"],"hidden":true,"hidpiCompositing":false,"renderOrder":0,"useCastShadows":true,"useShadows":true}},"mesh":9,"name":"Layer:MainProfileOutline_ThicknessMorph_RabbetNotchFeature","translation":[-0.01269999984651804,0.0,-0.0031750001944601536]},{"extensions":{"S8S_v3d_node":{"frustumCulling":true,"groupNames":["MainProfileOutlineSet_RabbetNotchFeature","AllRabbetNotchObjects"],"hidden":false,"hidpiCompositing":false,"renderOrder":0,"useCastShadows":true,"useShadows":true}},"mesh":10,"name":"Layer:MainProfileOutline_Base_RabbetNotchFeature","translation":[-0.01269999984651804,0.0,-0.0031750001944601536]},{"extensions":{"S8S_v3d_node":{"frustumCulling":true,"groupNames":["MainProfileOutlineSet_RabbetNotchFeature","AllRabbetNotchObjects"],"hidden":true,"hidpiCompositing":false,"renderOrder":0,"useCastShadows":true,"useShadows":true}},"mesh":11,"name":"Layer:MainProfileOutline_WidthMorph_RabbetNotchFeature","translation":[-0.01269999984651804,0.0,-0.0031749997287988663]},{"camera":0,"children":[16],"name":"__DEFAULT_CAMERA__","rotation":[0.9111656546592712,-0.3670589327812195,-0.07971763610839844,-0.1693812608718872],"scale":[1.0,1.0,1.0],"translation":[-0.962846577167511,0.5658676028251648,1.01846444606781]},{"extensions":{"S8S_v3d_lights":{"light":0}},"name":"__DEFAULT_LIGHT__","rotation":[3.774895063202166e-08,-0.0,-0.0,1.0],"scale":[1.0,1.0,1.0],"translation":[0.11512618511915207,0.1726892590522766,0.23025238513946533]},{"extensions":{"S8S_v3d_lights":{"light":1}},"name":"__AMBIENT__","rotation":[-0.7071068286895752,-0.0,-0.0,0.7071067690849304],"scale":[1.0,1.0,1.0],"translation":[0.0,0.0,0.0]}],"scene":0,"scenes":[{"extensions":{"S8S_v3d_scene":{"aaMethod":"AUTO","iblEnvironmentMode":"PROBE","physicallyCorrectLights":true,"pmremMaxTileSize":256,"shadowMap":{"esmDistanceScale":0.30000001192092896,"renderReverseSided":false,"renderSingleSided":true,"type":"PCFPOISSON"},"unitsScaleFactor":1.0,"worldMaterial":15}},"extras":{"animFrameRate":30,"coordSystem":"Z_UP_RIGHT"},"name":"Scene","nodes":[0,1,2,3,4,5,6,7,8,9,10,11,12,13,14,15,17]}]}
