{"accessors":[{"bufferView":0,"componentType":5121,"count":48,"max":[35],"min":[0],"type":"SCALAR"},{"bufferView":1,"componentType":5126,"count":36,"max":[0.03175000101327896,0.05079999566078186,0.02539999969303608],"min":[-0.006350000388920307,-0.0063499994575977325,-0.006350001320242882],"type":"VEC3"},{"bufferView":2,"componentType":5126,"count":36,"max":[1.0,1.0,1.0],"min":[-1.0,-1.0,-1.0],"type":"VEC3"},{"bufferView":3,"componentType":5126,"count":36,"max":[1.0,1.8454510808396662e-08,1.0,1.0],"min":[-1.0,-1.8454510808396662e-08,-1.0,1.0],"type":"VEC4"},{"bufferView":4,"componentType":5126,"count":36,"max":[0.02539999969303608,1.0],"min":[0.0,0.9746000170707703],"type":"VEC2"},{"bufferView":5,"componentType":5121,"count":48,"max":[37],"min":[0],"type":"SCALAR"},{"bufferView":6,"componentType":5126,"count":38,"max":[0.03175000101327896,0.02539999969303608,0.02539999969303608],"min":[-0.006350000388920307,-0.0063499994575977325,-0.006350001320242882],"type":"VEC3"},{"bufferView":7,"componentType":5126,"count":38,"max":[1.0,1.0,1.0],"min":[-1.0,-1.0,-1.0],"type":"VEC3"},{"bufferView":8,"componentType":5126,"count":38,"max":[1.0,5.638878519675927e-08,1.0,1.0],"min":[-1.0,-5.638878519675927e-08,-1.0,1.0],"type":"VEC4"},{"bufferView":9,"componentType":5126,"count":38,"max":[0.02539999969303608,1.0],"min":[0.0,0.9746000170707703],"type":"VEC2"},{"bufferView":10,"componentType":5126,"count":38,"max":[0.0,0.0,0.025400003418326378],"min":[0.0,0.0,0.0],"type":"VEC3"},{"bufferView":11,"componentType":5126,"count":38,"max":[0.0,0.18732047080993652,0.0],"min":[0.0,0.0,-0.2598932087421417],"type":"VEC3"},{"bufferView":12,"componentType":5126,"count":38,"max":[0.0,2.563126955124062e-08,0.0],"min":[0.0,-2.563126955124062e-08,0.0],"type":"VEC3"},{"bufferView":13,"componentType":5126,"count":38,"max":[0.0,0.02539999596774578,0.0],"min":[0.0,0.0,0.0],"type":"VEC3"},{"bufferView":14,"componentType":5126,"count":38,"max":[0.0,0.0,0.18732041120529175],"min":[0.0,-0.25989311933517456,0.0],"type":"VEC3"},{"bufferView":15,"componentType":5126,"count":38,"max":[0.0,3.793427438836261e-08,0.0],"min":[0.0,-3.793427438836261e-08,0.0],"type":"VEC3"},{"bufferView":16,"componentType":5121,"count":48,"max":[37],"min":[0],"type":"SCALAR"},{"bufferView":17,"componentType":5126,"count":38,"max":[0.03175000101327896,0.02539999969303608,0.05080000311136246],"min":[-0.006350000388920307,-0.0063499994575977325,-0.0063499994575977325],"type":"VEC3"},{"bufferView":18,"componentType":5126,"count":38,"max":[1.0,1.0,1.0],"min":[-1.0,-1.0,-1.0],"type":"VEC3"},{"bufferView":19,"componentType":5126,"count":38,"max":[1.0,3.075751564551865e-08,1.0,1.0],"min":[-1.0,-3.075751564551865e-08,-1.0,1.0],"type":"VEC4"},{"bufferView":20,"componentType":5126,"count":38,"max":[0.02539999969303608,1.0],"min":[0.0,0.9746000170707703],"type":"VEC2"}],"asset":{"copyright":"Nexlevl Woodworking","generator":"Soft8Soft Verge3D for 3ds Max plug-in","version":"2.0"},"bufferViews":[{"buffer":0,"byteLength":48,"byteOffset":0,"target":34963},{"buffer":0,"byteLength":432,"byteOffset":48,"target":34962},{"buffer":0,"byteLength":432,"byteOffset":480,"target":34962},{"buffer":0,"byteLength":576,"byteOffset":912,"target":34962},{"buffer":0,"byteLength":288,"byteOffset":1488,"target":34962},{"buffer":0,"byteLength":48,"byteOffset":1776,"target":34963},{"buffer":0,"byteLength":456,"byteOffset":1824,"target":34962},{"buffer":0,"byteLength":456,"byteOffset":2280,"target":34962},{"buffer":0,"byteLength":608,"byteOffset":2736,"target":34962},{"buffer":0,"byteLength":304,"byteOffset":3344,"target":34962},{"buffer":0,"byteLength":456,"byteOffset":3648,"target":34962},{"buffer":0,"byteLength":456,"byteOffset":4104,"target":34962},{"buffer":0,"byteLength":456,"byteOffset":4560,"target":34962},{"buffer":0,"byteLength":456,"byteOffset":5016,"target":34962},{"buffer":0,"byteLength":456,"byteOffset":5472,"target":34962},{"buffer":0,"byteLength":456,"byteOffset":5928,"target":34962},{"buffer":0,"byteLength":48,"byteOffset":6384,"target":34963},{"buffer":0,"byteLength":456,"byteOffset":6432,"target":34962},{"buffer":0,"byteLength":456,"byteOffset":6888,"target":34962},{"buffer":0,"byteLength":608,"byteOffset":7344,"target":34962},{"buffer":0,"byteLength":304,"byteOffset":7952,"target":34962}],"buffers":[{"byteLength":8256,"uri":"ReliefAngleFeature.bin"}],"cameras":[{"extensions":{"S8S_v3d_camera":{"controls":"ORBIT","enablePan":true,"moveSpeed":1,"orbitMaxDistance":10000,"orbitMaxPolarAngle":3.141592653589793,"orbitMinDistance":0,"orbitMinPolarAngle":0,"orbitTarget":[0,0,0],"rotateSpeed":1,"viewportFitInitialAspect":1.7777777777777777,"viewportFitType":"VERTICAL"}},"name":"__DEFAULT__","perspective":{"aspectRatio":1.7777777777777777,"yfov":0.4578223347944152,"zfar":1000,"znear":0.1},"type":"perspective"}],"extensions":{"S8S_v3d_clipping_planes":{},"S8S_v3d_curves":{},"S8S_v3d_light_probes":{},"S8S_v3d_lights":{"lights":[{"color":[1,1,1],"decay":0,"intensity":3.141592653589793,"name":"__DEFAULT__","profile":"max","type":"point"},{"color":[1.0,1.0,1.0],"intensity":1,"name":"__AMBIENT__","profile":"max","type":"ambient"}]}},"extensionsUsed":["S8S_v3d_materials","S8S_v3d_camera","S8S_v3d_lights","S8S_v3d_node","S8S_v3d_light_probes","S8S_v3d_clipping_planes","S8S_v3d_curves","S8S_v3d_scene"],"materials":[{"doubleSided":false,"extensions":{"S8S_v3d_materials":{"gtaoVisible":true,"nodeGraph":{"edges":[{"fromNode":1,"fromOutput":0,"toInput":0,"toNode":0},{"fromNode":1,"fromOutput":1,"toInput":1,"toNode":0}],"nodes":[{"inputs":[[1,1,1,1]],"is_active_output":true,"name":"MaxOutput","outputs":[],"type":"OUTPUT_MX"},{"brdfCurve":5.0,"brdfHigh":1.0,"brdfLow":0.05000000074505806,"brdfMode":true,"emitLuminance":1500.0,"inputFactors":[0,0,0,0,0,0,0,0,0,0,0,0,0,0,0,0,0,0,0,0,0,0,0,0,0],"inputs":[1.0,[0.14901960784313725,0.0,0.0,1.0],1.0,[1.0,1.0,1.0,1.0],0.20000000298023224,0.0,0.0,0.0,0.25,0.0,[1.0,1.0,1.0,1.0],0.0,1.5199999809265137,0.0,[1.0,1.0,1.0,1.0],1.0,1.0,[0.0,0.0,0.0,1.0],0.0,[1.0,1.0,1.0,1.0],0.0,[0,0,0],[0,0,0],0,1],"is_active_output":false,"name":"__DEFAULT__2392578278064","outputs":[[0,0,0,0]],"roughnessInv":false,"thinWalled":false,"transRoughnessInv":false,"transRoughnessLock":true,"type":"PHYSICAL_MX"}]},"profile":"max"}},"name":"__DEFAULT__2392578278064"},{"doubleSided":false,"extensions":{"S8S_v3d_materials":{"gtaoVisible":true,"nodeGraph":{"edges":[{"fromNode":1,"fromOutput":0,"toInput":0,"toNode":0},{"fromNode":1,"fromOutput":1,"toInput":1,"toNode":0}],"nodes":[{"inputs":[[1,1,1,1]],"is_active_output":true,"name":"MaxOutput","outputs":[],"type":"OUTPUT_MX"},{"brdfCurve":5.0,"brdfHigh":1.0,"brdfLow":0.05000000074505806,"brdfMode":true,"emitLuminance":1500.0,"inputFactors":[0,0,0,0,0,0,0,0,0,0,0,0,0,0,0,0,0,0,0,0,0,0,0,0,0],"inputs":[1.0,[0.14901960784313725,0.0,0.0,1.0],1.0,[1.0,1.0,1.0,1.0],0.20000000298023224,0.0,0.0,0.0,0.25,0.0,[1.0,1.0,1.0,1.0],0.0,1.5199999809265137,0.0,[1.0,1.0,1.0,1.0],1.0,1.0,[0.0,0.0,0.0,1.0],0.0,[1.0,1.0,1.0,1.0],0.0,[0,0,0],[0,0,0],0,1],"is_active_output":false,"name":"__DEFAULT__2392578281808","outputs":[[0,0,0,0]],"roughnessInv":false,"thinWalled":false,"transRoughnessInv":false,"transRoughnessLock":true,"type":"PHYSICAL_MX"}]},"profile":"max"}},"name":"__DEFAULT__2392578281808"},{"doubleSided":false,"extensions":{"S8S_v3d_materials":{"gtaoVisible":true,"nodeGraph":{"edges":[{"fromNode":1,"fromOutput":0,"toInput":0,"toNode":0},{"fromNode":1,"fromOutput":1,"toInput":1,"toNode":0}],"nodes":[{"inputs":[[1,1,1,1]],"is_active_output":true,"name":"MaxOutput","outputs":[],"type":"OUTPUT_MX"},{"brdfCurve":5.0,"brdfHigh":1.0,"brdfLow":0.05000000074505806,"brdfMode":true,"emitLuminance":1500.0,"inputFactors":[0,0,0,0,0,0,0,0,0,0,0,0,0,0,0,0,0,0,0,0,0,0,0,0,0],"inputs":[1.0,[0.14901960784313725,0.0,0.0,1.0],1.0,[1.0,1.0,1.0,1.0],0.20000000298023224,0.0,0.0,0.0,0.25,0.0,[1.0,1.0,1.0,1.0],0.0,1.5199999809265137,0.0,[1.0,1.0,1.0,1.0],1.0,1.0,[0.0,0.0,0.0,1.0],0.0,[1.0,1.0,1.0,1.0],0.0,[0,0,0],[0,0,0],0,1],"is_active_output":false,"name":"__DEFAULT__2392578283680","outputs":[[0,0,0,0]],"roughnessInv":false,"thinWalled":false,"transRoughnessInv":false,"transRoughnessLock":true,"type":"PHYSICAL_MX"}]},"profile":"max"}},"name":"__DEFAULT__2392578283680"},{"doubleSided":false,"extensions":{"S8S_v3d_materials":{"gtaoVisible":true,"nodeGraph":{"edges":[{"fromNode":1,"fromOutput":0,"toInput":0,"toNode":0},{"fromNode":1,"fromOutput":1,"toInput":1,"toNode":0}],"nodes":[{"inputs":[[1,1,1,1]],"is_active_output":true,"name":"MaxOutput","outputs":[],"type":"OUTPUT_MX"},{"brdfCurve":5.0,"brdfHigh":1.0,"brdfLow":0.05000000074505806,"brdfMode":true,"emitLuminance":1500.0,"inputFactors":[0,0,0,0,0,0,0,0,0,0,0,0,0,0,0,0,0,0,0,0,0,0,0,0,0],"inputs":[1.0,[0.14901960784313725,0.0,0.0,1.0],1.0,[1.0,1.0,1.0,1.0],0.20000000298023224,0.0,0.0,0.0,0.25,0.0,[1.0,1.0,1.0,1.0],0.0,1.5199999809265137,0.0,[1.0,1.0,1.0,1.0],1.0,1.0,[0.0,0.0,0.0,1.0],0.0,[1.0,1.0,1.0,1.0],0.0,[0,0,0],[0,0,0],0,1],"is_active_output":false,"name":"__DEFAULT__2392578263088","outputs":[[0,0,0,0]],"roughnessInv":false,"thinWalled":false,"transRoughnessInv":false,"transRoughnessLock":true,"type":"PHYSICAL_MX"}]},"profile":"max"}},"name":"__DEFAULT__2392578263088"},{"doubleSided":false,"extensions":{"S8S_v3d_materials":{"gtaoVisible":true,"nodeGraph":{"edges":[{"fromNode":1,"fromOutput":0,"toInput":0,"toNode":0},{"fromNode":1,"fromOutput":1,"toInput":1,"toNode":0}],"nodes":[{"inputs":[[1,1,1,1]],"is_active_output":true,"name":"MaxOutput","outputs":[],"type":"OUTPUT_MX"},{"brdfCurve":5.0,"brdfHigh":1.0,"brdfLow":0.05000000074505806,"brdfMode":true,"emitLuminance":1500.0,"inputFactors":[0,0,0,0,0,0,0,0,0,0,0,0,0,0,0,0,0,0,0,0,0,0,0,0,0],"inputs":[1.0,[0.14901960784313725,0.0,0.0,1.0],1.0,[1.0,1.0,1.0,1.0],0.20000000298023224,0.0,0.0,0.0,0.25,0.0,[1.0,1.0,1.0,1.0],0.0,1.5199999809265137,0.0,[1.0,1.0,1.0,1.0],1.0,1.0,[0.0,0.0,0.0,1.0],0.0,[1.0,1.0,1.0,1.0],0.0,[0,0,0],[0,0,0],0,1],"is_active_output":false,"name":"__DEFAULT__2392578302400","outputs":[[0,0,0,0]],"roughnessInv":false,"thinWalled":false,"transRoughnessInv":false,"transRoughnessLock":true,"type":"PHYSICAL_MX"}]},"profile":"max"}},"name":"__DEFAULT__2392578302400"},{"doubleSided":false,"extensions":{"S8S_v3d_materials":{"gtaoVisible":true,"nodeGraph":{"edges":[{"fromNode":1,"fromOutput":0,"toInput":0,"toNode":0},{"fromNode":1,"fromOutput":1,"toInput":1,"toNode":0}],"nodes":[{"inputs":[[1,1,1,1]],"is_active_output":true,"name":"MaxOutput","outputs":[],"type":"OUTPUT_MX"},{"brdfCurve":5.0,"brdfHigh":1.0,"brdfLow":0.05000000074505806,"brdfMode":true,"emitLuminance":1500.0,"inputFactors":[0,0,0,0,0,0,0,0,0,0,0,0,0,0,0,0,0,0,0,0,0,0,0,0,0],"inputs":[1.0,[0.14901960784313725,0.0,0.0,1.0],1.0,[1.0,1.0,1.0,1.0],0.20000000298023224,0.0,0.0,0.0,0.25,0.0,[1.0,1.0,1.0,1.0],0.0,1.5199999809265137,0.0,[1.0,1.0,1.0,1.0],1.0,1.0,[0.0,0.0,0.0,1.0],0.0,[1.0,1.0,1.0,1.0],0.0,[0,0,0],[0,0,0],0,1],"is_active_output":false,"name":"__DEFAULT__2392578298656","outputs":[[0,0,0,0]],"roughnessInv":false,"thinWalled":false,"transRoughnessInv":false,"transRoughnessLock":true,"type":"PHYSICAL_MX"}]},"profile":"max"}},"name":"__DEFAULT__2392578298656"},{"extensions":{"S8S_v3d_materials":{"nodeGraph":{"edges":[],"nodes":[{"inputs":[[0.8627450980392157,0.8627450980392157,0.8627450980392157,1]],"is_active_output":true,"name":"World Output","outputs":[],"type":"OUTPUT_MX"}]},"profile":"max"}},"name":"Verge3D_Environment"}],"meshes":[{"name":"Layer:MainProfileOutline_WidthMorph_ReliefAngleFeature","primitives":[{"attributes":{"NORMAL":2,"POSITION":1,"TANGENT":3,"TEXCOORD_0":4},"indices":0,"material":0,"mode":4}]},{"extras":{"targetNames":["Layer:MainProfileOutline_ThicknessMorph_ReliefAngleFeature","Layer:MainProfileOutline_WidthMorph_ReliefAngleFeature"]},"name":"Layer:MainProfileOutline_Base_ReliefAngleFeature","primitives":[{"attributes":{"NORMAL":7,"POSITION":6,"TANGENT":8,"TEXCOORD_0":9},"indices":5,"material":1,"mode":4,"targets":[{"NORMAL":11,"POSITION":10,"TANGENT":12},{"NORMAL":14,"POSITION":13,"TANGENT":15}]}],"weights":[0.0,0.0]},{"name":"Layer:MainProfileOutline_ThicknessMorph_ReliefAngleFeature","primitives":[{"attributes":{"NORMAL":18,"POSITION":17,"TANGENT":19,"TEXCOORD_0":20},"indices":16,"material":2,"mode":4}]}],"nodes":[{"extensions":{"S8S_v3d_node":{"frustumCulling":true,"groupNames":["MainProfileOutlineSet_ReliefAngleFeature","AllReliefAngleObjects"],"hidden":true,"hidpiCompositing":false,"renderOrder":0,"useCastShadows":true,"useShadows":true}},"mesh":0,"name":"Layer:MainProfileOutline_WidthMorph_ReliefAngleFeature","translation":[-0.01269999984651804,0.008016875013709068,-0.0010715620592236519]},{"extensions":{"S8S_v3d_node":{"frustumCulling":true,"groupNames":["MainProfileOutlineSet_ReliefAngleFeature","AllReliefAngleObjects"],"hidden":false,"hidpiCompositing":false,"renderOrder":0,"useCastShadows":true,"useShadows":true}},"mesh":1,"name":"Layer:MainProfileOutline_Base_ReliefAngleFeature","translation":[-0.01269999984651804,0.008016875013709068,-0.0010715620592236519]},{"extensions":{"S8S_v3d_node":{"frustumCulling":true,"groupNames":["MainProfileOutlineSet_ReliefAngleFeature","AllReliefAngleObjects"],"hidden":true,"hidpiCompositing":false,"renderOrder":0,"useCastShadows":true,"useShadows":true}},"mesh":2,"name":"Layer:MainProfileOutline_ThicknessMorph_ReliefAngleFeature","translation":[-0.01269999984651804,0.008016875013709068,-0.0010715629905462265]},{"extensions":{"S8S_v3d_node":{"groupNames":["AllReliefAngleObjects"],"hidden":true}},"extras":{"customProps":{"profileNo":"ReliefAngleFeature"}},"name":"OriginPoint_ProfileNo_ReliefAngleFeature","rotation":[-0.4999999403953552,0.5,-0.5000000596046448,-0.4999999403953552],"translation":[-0.01269999984651804,0.008016875013709068,-0.0010715625248849392]},{"extensions":{"S8S_v3d_node":{"groupNames":["AllReliefAngleObjects"],"hidden":true}},"extras":{"customProps":{"initialWidth":"1","widthOrientation":"[0,0,1]"}},"name":"WidthLine_ReliefAngleFeature","translation":[-0.01269999984651804,0.020716875791549683,-0.0010715625248849392]},{"extensions":{"S8S_v3d_node":{"groupNames":["AllReliefAngleObjects"],"hidden":true}},"extras":{"customProps":{"initialThickness":"1","thicknessOrientation":"[0,-1,0]"}},"name":"ThicknessLine_ReliefAngleFeature","translation":[-0.01269999984651804,0.008016875013709068,0.011628436855971813]},{"camera":0,"children":[7],"name":"__DEFAULT_CAMERA__","rotation":[-0.43688279390335083,0.8427044153213501,0.2732042670249939,0.15601974725723267],"scale":[1.000000238418579,1.0000001192092896,0.9999999403953552],"translation":[-0.97674560546875,0.9255414605140686,-0.6824209094047546]},{"extensions":{"S8S_v3d_lights":{"light":0}},"name":"__DEFAULT_LIGHT__","rotation":[3.774895063202166e-08,-0.0,-0.0,1.0],"scale":[1.0,1.0,1.0],"translation":[0.14287500083446503,0.21431249380111694,0.28575000166893005]},{"extensions":{"S8S_v3d_lights":{"light":1}},"name":"__AMBIENT__","rotation":[-0.7071068286895752,-0.0,-0.0,0.7071067690849304],"scale":[1.0,1.0,1.0],"translation":[0.0,0.0,0.0]}],"scene":0,"scenes":[{"extensions":{"S8S_v3d_scene":{"aaMethod":"AUTO","iblEnvironmentMode":"PROBE","physicallyCorrectLights":true,"pmremMaxTileSize":256,"shadowMap":{"esmDistanceScale":0.30000001192092896,"renderReverseSided":false,"renderSingleSided":true,"type":"PCFPOISSON"},"unitsScaleFactor":1.0,"worldMaterial":6}},"extras":{"animFrameRate":30,"coordSystem":"Z_UP_RIGHT"},"name":"Scene","nodes":[0,1,2,3,4,5,6,8]}]}
